<svg version="1.1" xmlns="http://www.w3.org/2000/svg"  viewBox="0 0 214 214" width="214" height="214"><path d="M0 0 C70.62 0 141.24 0 214 0 C214 70.62 214 141.24 214 214 C143.38 214 72.76 214 0 214 C0 143.38 0 72.76 0 0 Z " transform="translate(0,0)" style="fill: #FCEEEA;"></path><path d="M0 0 C70.62 0 141.24 0 214 0 C214 70.62 214 141.24 214 214 C183.64 214 153.28 214 122 214 C122 213.67 122 213.34 122 213 C125.3 212.67 128.6 212.34 132 212 C132 209.03 132 206.06 132 203 C133.52994792 204.3671875 135.05989583 205.734375 136.58984375 207.1015625 C141.30285551 208.85843885 145.99902135 206.87084254 150.44360352 204.93652344 C152.93524874 203.70249016 155.37582434 202.40160883 157.8125 201.0625 C158.64458984 200.61970703 159.47667969 200.17691406 160.33398438 199.72070312 C167.56364178 195.92594459 167.56364178 195.92594459 173 190 C174.33333333 189.33333333 175.66666667 188.66666667 177 188 C183.07726951 183.61871268 187.43374862 177.88806098 192 172 C192.61101562 171.22785156 193.22203125 170.45570313 193.8515625 169.66015625 C199.48719489 162.13311299 203.33173792 153.6180716 207 145 C207.40605469 144.06671875 207.81210938 143.1334375 208.23046875 142.171875 C209.38057621 137.43133054 209.16235096 132.8541376 209 128 C208.96648437 126.96568848 208.93296875 125.93137695 208.8984375 124.86572266 C208.78142085 121.6804318 208.6442916 118.49666469 208.5 115.3125 C208.42845703 113.66991211 208.42845703 113.66991211 208.35546875 111.99414062 C208.2391013 109.32932605 208.12058005 106.66462671 208 104 C209.32 104.33 210.64 104.66 212 105 C211.37996094 104.29359375 210.75992188 103.5871875 210.12109375 102.859375 C202.2141258 93.73875819 195.00149468 84.15020127 187.81933594 74.45410156 C185.12101686 70.81433998 182.40580376 67.18734896 179.6875 63.5625 C178.96784058 62.60186646 178.96784058 62.60186646 178.23364258 61.62182617 C173.54414567 55.37210945 168.78228251 49.17887828 164 43 C164 44.65 164 46.3 164 48 C164.598125 48.04125 165.19625 48.0825 165.8125 48.125 C168 49 168 49 169.625 51.75 C170.41789321 53.62411123 171.1819831 55.51218772 171.86328125 57.4296875 C173.09424344 60.21310029 174.57761249 62.07932634 176.5625 64.375 C178.68996588 67.10644984 180.13843744 69.31009986 181.5625 72.5 C180.73029028 77.67819383 177.59967603 79.76919095 173.7109375 83.08203125 C169.07490031 86.36199416 169.07490031 86.36199416 166 87 C163.31640625 85.65625 163.31640625 85.65625 160.5625 83.5 C159.12970703 82.38431641 159.12970703 82.38431641 157.66796875 81.24609375 C154.57094213 78.6387873 151.75092975 75.96810842 149 73 C148.67 72.67 148.34 72.34 148 72 C148 72.99 148 73.98 148 75 C139.7057411 75.69225654 134.21590833 75.5121587 127.51171875 70.3125 C127.01285156 69.879375 126.51398438 69.44625 126 69 C125.505 70.98 125.505 70.98 125 73 C123.68 72.01 122.36 71.02 121 70 C122.485 71.98 122.485 71.98 124 74 C123.34 74 122.68 74 122 74 C121.67 74.66 121.34 75.32 121 76 C111.38727323 66.33614171 105.02886563 54.98779052 101 42 C100.34 42 99.68 42 99 42 C98.01 39.525 98.01 39.525 97 37 C97.66 36.67 98.32 36.34 99 36 C98.67 35.34 98.34 34.68 98 34 C97.01 34.99 97.01 34.99 96 36 C95.67 35.34 95.34 34.68 95 34 C94.62875 35.4540625 94.62875 35.4540625 94.25 36.9375 C93.8375 37.948125 93.425 38.95875 93 40 C90.875 40.875 90.875 40.875 89 41 C88.94972656 41.99386719 88.89945312 42.98773438 88.84765625 44.01171875 C88.14180791 48.89618929 85.45605877 52.04398307 82.4375 55.8125 C81.62430298 56.85700317 81.62430298 56.85700317 80.79467773 57.92260742 C79.7085945 59.31375393 78.61665914 60.70035399 77.51855469 62.08203125 C76.19219289 63.75725605 74.89435511 65.45498546 73.6015625 67.15625 C70.30152355 71.45515131 67.72765103 74.28427813 63 77 C62.278125 77.78375 61.55625 78.5675 60.8125 79.375 C58.18700054 81.82546616 56.57627525 82.7291833 53.375 84.125 C47.48418587 86.85876105 43.77183585 90.95432476 39.4453125 95.671875 C37.13443301 97.87200947 36.10698355 98.6820761 33 99 C33 99.66 33 100.32 33 101 C32.01 101 31.02 101 30 101 C29.67 102.32 29.34 103.64 29 105 C26.525 105.495 26.525 105.495 24 106 C25.98 106.99 27.96 107.98 30 109 C27.36 113.95 24.72 118.9 22 124 C21.67 124 21.34 124 21 124 C21 120.37 21 116.74 21 113 C20.96261719 114.12019531 20.92523437 115.24039063 20.88671875 116.39453125 C20.82105743 117.8672209 20.75461014 119.33987566 20.6875 120.8125 C20.66494141 121.55048828 20.64238281 122.28847656 20.61914062 123.04882812 C20.34753786 128.50557459 20.34753786 128.50557459 18.5859375 131.01171875 C17 132 17 132 14.9375 132 C12.22116537 130.59802084 12.00734888 128.79371422 11 126 C10.94465088 126.55985596 10.88930176 127.11971191 10.83227539 127.6965332 C10.5792418 130.23555805 10.3209302 132.774019 10.0625 135.3125 C9.93198242 136.63411133 9.93198242 136.63411133 9.79882812 137.98242188 C9.66831055 139.25375977 9.66831055 139.25375977 9.53515625 140.55078125 C9.456604 141.33106689 9.37805176 142.11135254 9.29711914 142.9152832 C9 145 9 145 8 148 C8.63914201 149.99233821 8.63914201 149.99233821 9.7734375 152.0625 C10.38614502 153.25045166 10.38614502 153.25045166 11.01123047 154.46240234 C11.46127441 155.29980957 11.91131836 156.1372168 12.375 157 C12.82891113 157.85416504 13.28282227 158.70833008 13.75048828 159.58837891 C17.4960725 166.45116347 21.76079029 172.18998145 27 178 C27.67804687 178.89332031 28.35609375 179.78664062 29.0546875 180.70703125 C31.44550773 183.52512658 33.46688886 184.11672221 37 185 C37 185.99 37 186.98 37 188 C43.78934158 194.22060093 51.80788317 198.88781537 60 203 C60.66 201.68 61.32 200.36 62 199 C62 200.98 62 202.96 62 205 C64.32993012 205.72681448 66.66295943 206.43182539 69.0078125 207.109375 C71.03948943 207.7141039 73.05576858 208.37262421 75.0546875 209.078125 C80.81661361 211.07944018 80.81661361 211.07944018 86.5390625 209.8515625 C89.02692262 208.05418628 89.02692262 208.05418628 92 205 C92.99 209.455 92.99 209.455 94 214 C62.98 214 31.96 214 0 214 C0 143.38 0 72.76 0 0 Z " transform="translate(0,0)" style="fill: #F9F1F7;"></path><path d="M0 0 C0 70.62 0 141.24 0 214 C-30.36 214 -60.72 214 -92 214 C-92 213.67 -92 213.34 -92 213 C-88.7 212.67 -85.4 212.34 -82 212 C-82 209.03 -82 206.06 -82 203 C-80.47005208 204.3671875 -78.94010417 205.734375 -77.41015625 207.1015625 C-72.69714449 208.85843885 -68.00097865 206.87084254 -63.55639648 204.93652344 C-61.06475126 203.70249016 -58.62417566 202.40160883 -56.1875 201.0625 C-55.35541016 200.61970703 -54.52332031 200.17691406 -53.66601562 199.72070312 C-46.43635822 195.92594459 -46.43635822 195.92594459 -41 190 C-39.66666667 189.33333333 -38.33333333 188.66666667 -37 188 C-30.92273049 183.61871268 -26.56625138 177.88806098 -22 172 C-21.38898438 171.22785156 -20.77796875 170.45570313 -20.1484375 169.66015625 C-14.51280511 162.13311299 -10.66826208 153.6180716 -7 145 C-6.39091797 143.60007813 -6.39091797 143.60007813 -5.76953125 142.171875 C-4.61942379 137.43133054 -4.83764904 132.8541376 -5 128 C-5.03351563 126.96568848 -5.06703125 125.93137695 -5.1015625 124.86572266 C-5.21857915 121.6804318 -5.3557084 118.49666469 -5.5 115.3125 C-5.57154297 113.66991211 -5.57154297 113.66991211 -5.64453125 111.99414062 C-5.7608987 109.32932605 -5.87941995 106.66462671 -6 104 C-4.02 104.495 -4.02 104.495 -2 105 C-2.93005859 103.94039062 -2.93005859 103.94039062 -3.87890625 102.859375 C-11.7858742 93.73875819 -18.99850532 84.15020127 -26.18066406 74.45410156 C-30.29892486 68.89898112 -34.45233027 63.37011562 -38.61230469 57.84619141 C-39.54494524 56.60540536 -40.47525012 55.36286058 -41.40332031 54.11865234 C-42.74214971 52.32458321 -44.0888781 50.53671413 -45.4375 48.75 C-46.19933594 47.73421875 -46.96117187 46.7184375 -47.74609375 45.671875 C-49.96175741 43.04533437 -52.32454828 41.1328116 -55 39 C-55 38.34 -55 37.68 -55 37 C-55.66 37 -56.32 37 -57 37 C-57 36.34 -57 35.68 -57 35 C-57.66 35 -58.32 35 -59 35 C-59 34.34 -59 33.68 -59 33 C-59.66 33 -60.32 33 -61 33 C-61 32.34 -61 31.68 -61 31 C-61.66 31 -62.32 31 -63 31 C-63 30.34 -63 29.68 -63 29 C-63.556875 28.731875 -64.11375 28.46375 -64.6875 28.1875 C-67.21225334 26.89100504 -69.63714484 25.57523677 -72 24 C-72 23.34 -72 22.68 -72 22 C-74.475 21.01 -74.475 21.01 -77 20 C-77 19.34 -77 18.68 -77 18 C-79.31 17.34 -81.62 16.68 -84 16 C-84 15.34 -84 14.68 -84 14 C-85.32 13.34 -86.64 12.68 -88 12 C-88 11.34 -88 10.68 -88 10 C-88.66515625 9.89558594 -89.3303125 9.79117187 -90.015625 9.68359375 C-93.7432347 8.82975645 -97.21164322 7.48397859 -100.75 6.0625 C-101.43449219 5.79759766 -102.11898437 5.53269531 -102.82421875 5.25976562 C-107.87846417 3.24307166 -107.87846417 3.24307166 -109 1 C-76.50111113 -15.24944443 -36.33486235 0 0 0 Z " transform="translate(214,0)" style="fill: #F7EFF5;"></path><path d="M0 0 C0.33 0 0.66 0 1 0 C1.23074219 1.07636719 1.46148437 2.15273437 1.69921875 3.26171875 C6.10782197 23.25689724 13.44739874 40.56226247 27 56 C28.0209375 57.34771484 28.0209375 57.34771484 29.0625 58.72265625 C31.44898779 61.5277417 33.47884409 62.11971102 37 63 C37 63.99 37 64.98 37 66 C43.78934158 72.22060093 51.80788317 76.88781537 60 81 C60.66 79.68 61.32 78.36 62 77 C62 78.98 62 80.96 62 83 C64.32993012 83.72681448 66.66295943 84.43182539 69.0078125 85.109375 C71.03948943 85.7141039 73.05576858 86.37262421 75.0546875 87.078125 C80.81661361 89.07944018 80.81661361 89.07944018 86.5390625 87.8515625 C89.02692262 86.05418628 89.02692262 86.05418628 92 83 C92.99 87.455 92.99 87.455 94 92 C62.98 92 31.96 92 0 92 C0 61.64 0 31.28 0 0 Z " transform="translate(0,122)" style="fill: #000000;"></path><path d="M0 0 C0.33 0 0.66 0 1 0 C1 30.36 1 60.72 1 92 C-29.36 92 -59.72 92 -91 92 C-91 91.67 -91 91.34 -91 91 C-86.05 90.505 -86.05 90.505 -81 90 C-81 87.03 -81 84.06 -81 81 C-78.70507812 83.05078125 -78.70507812 83.05078125 -76.41015625 85.1015625 C-71.69714449 86.85843885 -67.00097865 84.87084254 -62.55639648 82.93652344 C-60.06475126 81.70249016 -57.62417566 80.40160883 -55.1875 79.0625 C-54.35541016 78.61970703 -53.52332031 78.17691406 -52.66601562 77.72070312 C-45.43635822 73.92594459 -45.43635822 73.92594459 -40 68 C-38.66666667 67.33333333 -37.33333333 66.66666667 -36 66 C-29.92273049 61.61871268 -25.56625138 55.88806098 -21 50 C-20.38898438 49.22785156 -19.77796875 48.45570313 -19.1484375 47.66015625 C-8.93360018 34.01705162 -2.48171196 16.79727147 0 0 Z " transform="translate(213,122)" style="fill: #000000;"></path><path d="M0 0 C30.36 0 60.72 0 92 0 C92 0.33 92 0.66 92 1 C89.03 1.66 86.06 2.32 83 3 C84.32 3.99 85.64 4.98 87 6 C82.13453877 5.05393809 82.13453877 5.05393809 80.28515625 4.3125 C76.77505985 3.83248682 73.90306683 5.17304232 70.6875 6.4375 C69.98471924 6.71045898 69.28193848 6.98341797 68.55786133 7.26464844 C57.05672889 11.85944153 47.21854322 17.01836132 38.3671875 25.80078125 C36 28 36 28 33.46875 29.4765625 C28.58938789 32.48756127 25.45491968 37.50681431 22 42 C21.38769531 42.77472656 20.77539062 43.54945312 20.14453125 44.34765625 C16.29760589 49.47982441 13.39262014 54.92415575 10.625 60.6875 C10.27880615 61.4005127 9.9326123 62.11352539 9.57592773 62.84814453 C7.52711366 67.26610843 6.61230155 71.13160242 6 76 C5.34 76.99 4.68 77.98 4 79 C3.39896659 81.21389829 2.86324191 83.44602579 2.375 85.6875 C2.11460938 86.86699219 1.85421875 88.04648438 1.5859375 89.26171875 C1.39257812 90.16535156 1.19921875 91.06898437 1 92 C0.67 92 0.34 92 0 92 C0 61.64 0 31.28 0 0 Z " transform="translate(0,0)" style="fill: #000000;"></path><path d="M0 0 C30.36 0 60.72 0 92 0 C92 30.36 92 60.72 92 92 C91.67 92 91.34 92 91 92 C90.76925781 90.92363281 90.53851563 89.84726563 90.30078125 88.73828125 C85.89217803 68.74310276 78.55260126 51.43773753 65 36 C64.35804688 35.1646875 63.71609375 34.329375 63.0546875 33.46875 C59.31024504 28.96972408 54.60193331 25.58134326 50 22 C49.2265625 21.38769531 48.453125 20.77539062 47.65625 20.14453125 C34.01082725 9.93382964 16.79719398 3.48170051 0 1 C0 0.67 0 0.34 0 0 Z " transform="translate(122,0)" style="fill: #000000;"></path><path d="M0 0 C2.19921875 1.36328125 2.19921875 1.36328125 5.32421875 3.80078125 C4.33421875 4.13078125 3.34421875 4.46078125 2.32421875 4.80078125 C3.14921875 5.74953125 3.97421875 6.69828125 4.82421875 7.67578125 C7.32421875 10.55078125 7.32421875 10.55078125 7.32421875 12.80078125 C4.58236722 11.75242625 2.10831804 10.67320356 -0.42578125 9.17578125 C-6.24296155 6.71466651 -11.53725211 7.16462965 -17.48828125 9.11328125 C-27.81196058 13.7123035 -35.64919484 22.53608623 -40.6171875 32.5078125 C-42.07677484 37.04815247 -41.76655147 40.70811513 -40.84765625 45.33984375 C-40.7909375 46.15195313 -40.73421875 46.9640625 -40.67578125 47.80078125 C-41.67297622 48.80357844 -42.67335113 49.80321729 -43.67578125 50.80078125 C-44.99067393 56.23477651 -44.47897003 60.79798894 -43.42578125 66.17578125 C-43.20946045 67.30004517 -43.20946045 67.30004517 -42.98876953 68.44702148 C-42.56804252 70.56885884 -42.12477511 72.68477825 -41.67578125 74.80078125 C-41.49273437 75.73277344 -41.3096875 76.66476563 -41.12109375 77.625 C-39.42431267 84.28428465 -35.28968616 88.06578489 -29.67578125 91.80078125 C-17.04941427 98.94427005 -3.99267406 100.93092558 10.30859375 102.13671875 C18.4408411 102.96466248 18.4408411 102.96466248 21.22265625 105.59765625 C23.34144488 108.80510423 24.32421875 110.92590166 24.32421875 114.80078125 C23.00421875 114.80078125 21.68421875 114.80078125 20.32421875 114.80078125 C19.49921875 115.68765625 18.67421875 116.57453125 17.82421875 117.48828125 C16.27734375 118.87109375 16.27734375 118.87109375 14.32421875 119.80078125 C10.09880898 119.49547708 6.30445639 118.20020238 2.32421875 116.80078125 C1.10025391 116.39085937 1.10025391 116.39085937 -0.1484375 115.97265625 C-12.58245375 111.40590571 -28.12018989 104.13416829 -35.67578125 92.80078125 C-36.28808594 92.51203125 -36.90039062 92.22328125 -37.53125 91.92578125 C-42.33336304 89.40663998 -45.42444507 84.02365422 -48.67578125 79.80078125 C-49.30097656 78.98996094 -49.92617188 78.17914063 -50.5703125 77.34375 C-55.43748299 70.71868497 -59.64951235 63.456047 -62.67578125 55.80078125 C-62.34578125 54.81078125 -62.01578125 53.82078125 -61.67578125 52.80078125 C-61.48754239 51.3333147 -61.336317 49.86088696 -61.2109375 48.38671875 C-61.13294922 47.54367188 -61.05496094 46.700625 -60.97460938 45.83203125 C-60.81639782 44.05378572 -60.66278892 42.27512499 -60.51367188 40.49609375 C-60.43439453 39.655625 -60.35511719 38.81515625 -60.2734375 37.94921875 C-60.20648682 37.17755371 -60.13953613 36.40588867 -60.07055664 35.61083984 C-59.94028076 35.01352051 -59.81000488 34.41620117 -59.67578125 33.80078125 C-58.68578125 33.30578125 -58.68578125 33.30578125 -57.67578125 32.80078125 C-57.01578125 34.78078125 -56.35578125 36.76078125 -55.67578125 38.80078125 C-54.02578125 38.80078125 -52.37578125 38.80078125 -50.67578125 38.80078125 C-50.01578125 29.23078125 -49.35578125 19.66078125 -48.67578125 9.80078125 C-48.34578125 9.80078125 -48.01578125 9.80078125 -47.67578125 9.80078125 C-47.67578125 16.40078125 -47.67578125 23.00078125 -47.67578125 29.80078125 C-45.36578125 25.84078125 -43.05578125 21.88078125 -40.67578125 17.80078125 C-41.66578125 17.16140625 -42.65578125 16.52203125 -43.67578125 15.86328125 C-45.16078125 14.84234375 -45.16078125 14.84234375 -46.67578125 13.80078125 C-46.67578125 13.47078125 -46.67578125 13.14078125 -46.67578125 12.80078125 C-45.91394531 12.74921875 -45.15210937 12.69765625 -44.3671875 12.64453125 C-36.89532631 11.82365262 -33.13438706 10.0669705 -27.80078125 4.84765625 C-19.90184455 -2.76087837 -10.28542288 -4.60967127 0 0 Z " transform="translate(69.67578125,92.19921875)" style="fill: #D2C2D0;"></path><path d="M0 0 C8.41475152 7.88882955 14.92709168 17.56945444 21.72216797 26.82983398 C30.79289909 39.18370957 40.29034811 51.14448461 50 63 C49.67 63.66 49.34 64.32 49 65 C47.515 64.505 47.515 64.505 46 64 C46.0407666 64.98395752 46.0815332 65.96791504 46.12353516 66.98168945 C46.27200109 70.63220651 46.40664161 74.2831252 46.53710938 77.93432617 C46.59550995 79.51454828 46.65765976 81.09463647 46.72363281 82.67456055 C46.81781156 84.94555273 46.89849754 87.21668515 46.9765625 89.48828125 C47.00875885 90.19463211 47.0409552 90.90098297 47.0741272 91.6287384 C47.18818461 95.36316474 47.13587418 96.79618873 45 100 C45.01160156 99.25016846 45.02320313 98.50033691 45.03515625 97.7277832 C45.43985332 77.35798928 45.43985332 77.35798928 36 60 C35.19533428 58.64452144 34.41743505 57.27214131 33.6875 55.875 C32.22813353 53.08269935 32.22813353 53.08269935 30.48828125 51.5703125 C28.34683516 49.31083395 27.77289961 46.85768449 26.84375 43.9375 C25.888453 41.74385504 24.69684415 40.66221468 23 39 C21.8125 36.8125 21.8125 36.8125 21 35 C21.144375 36.27875 21.28875 37.5575 21.4375 38.875 C21.99814645 43.91280884 22.50501531 48.95536879 23 54 C24.485 54.495 24.485 54.495 26 55 C25.34 55 24.68 55 24 55 C24 58.3 24 61.6 24 65 C23.67 65 23.34 65 23 65 C23 62.03 23 59.06 23 56 C21.35 56.99 19.7 57.98 18 59 C19.67711101 62.61223909 21.33438885 66.16719443 25 68 C25 69.32 25 70.64 25 72 C26.65 72.33 28.3 72.66 30 73 C30 73.66 30 74.32 30 75 C29.03320312 75.29003906 29.03320312 75.29003906 28.046875 75.5859375 C25.65648799 76.88708247 25.65648799 76.88708247 25.390625 80.0390625 C25.34421875 81.22242187 25.2978125 82.40578125 25.25 83.625 C25.19328125 84.81351562 25.1365625 86.00203125 25.078125 87.2265625 C25.05234375 88.14179688 25.0265625 89.05703125 25 90 C24.67 90 24.34 90 24 90 C23.505 86.04 23.505 86.04 23 82 C22.34 82 21.68 82 21 82 C20.67 82.66 20.34 83.32 20 84 C18 82 18 82 17.875 78.5 C17.22673994 72.31917567 13.03084827 68.42844895 9 64 C8.30390625 63.18789062 7.6078125 62.37578125 6.890625 61.5390625 C1.19695367 55.28433597 -5.64750469 50.489472 -14.33203125 49.8203125 C-21.01337318 50.40796399 -26.03175317 53.7623777 -31 58 C-30.73958333 56.01432292 -30.47916667 54.02864583 -30.21875 52.04296875 C-29.946767 49.84528294 -29.946767 49.84528294 -30 47 C-29.67 46.34 -29.34 45.68 -29 45 C-29.7940625 44.51789063 -30.588125 44.03578125 -31.40625 43.5390625 C-32.4271875 42.90742187 -33.448125 42.27578125 -34.5 41.625 C-35.5209375 40.99851563 -36.541875 40.37203125 -37.59375 39.7265625 C-38.3878125 39.15679687 -39.181875 38.58703125 -40 38 C-40 37.34 -40 36.68 -40 36 C-40.53625 35.773125 -41.0725 35.54625 -41.625 35.3125 C-44.82460161 33.54429911 -47.29037223 31.46329797 -50 29 C-50 28.34 -50 27.68 -50 27 C-51.32 26.34 -52.64 25.68 -54 25 C-54 23.02 -54 21.04 -54 19 C-50.41455553 22.44329029 -47.53264165 26.18288685 -44.5859375 30.171875 C-44.06257813 30.77515625 -43.53921875 31.3784375 -43 32 C-42.34 32 -41.68 32 -41 32 C-41 29.53721199 -41.85452863 28.14775881 -43 26 C-40.525 27.98 -40.525 27.98 -38 30 C-38 28.68 -38 27.36 -38 26 C-35.44524038 27.22628462 -33.23445783 28.52056867 -30.875 30.125 C-26.98080134 32.4142144 -23.56143954 32.29368034 -19.13671875 32.04296875 C-17 32 -17 32 -15 33 C-15.495 31.02 -15.495 31.02 -16 29 C-15.34 29 -14.68 29 -14 29 C-12.95244255 30.14576596 -11.96190283 31.3439356 -11 32.5625 C-7.08178277 37.14468291 -2.59128769 41.57291371 3 44 C6.95688438 43.06642259 9.78451589 40.891281 12.875 38.3125 C13.67679687 37.66925781 14.47859375 37.02601562 15.3046875 36.36328125 C17.32305858 34.02656316 17.32305858 34.02656316 17.0390625 30.6171875 C15.85376475 26.49092542 14.20811382 24.12479745 11.5 20.8125 C6.57741461 14.74494617 6.57741461 14.74494617 6 11 C5.20003343 8.81601365 5.20003343 8.81601365 4 7 C3.01 6.67 2.02 6.34 1 6 C0.505 3.03 0.505 3.03 0 0 Z " transform="translate(163,42)" style="fill: #A49897;"></path><path d="M0 0 C3 2 3 2 3.6875 4.625 C3.790625 5.40875 3.89375 6.1925 4 7 C4.99 7.33 5.98 7.66 7 8 C8.4477922 10.89558441 9 12.74188938 9 16 C9.99 16.33 10.98 16.66 12 17 C13.02100832 18.98935719 14.01692855 20.99162491 15 23 C15.81855469 24.0003125 16.63710937 25.000625 17.48046875 26.03125 C27.01151917 37.8176472 26.84833613 50.94015697 25.49609375 65.56982422 C24.36852022 73.36628486 21.3754798 79.54029563 17 86 C16.58830566 86.63309082 16.17661133 87.26618164 15.75244141 87.91845703 C9.0341584 98.17103955 1.43506447 107.15786849 -8 115 C-8.66 114.67 -9.32 114.34 -10 114 C-9.73783691 113.16863525 -9.47567383 112.33727051 -9.20556641 111.48071289 C-8.22225136 108.3561543 -7.24235217 105.23056495 -6.26464844 102.10424805 C-5.84313284 100.7587767 -5.42031238 99.41371334 -4.99609375 98.0690918 C-2.69576577 90.77477347 -0.42531151 83.52400017 1 76 C1.13599609 75.29721924 1.27199219 74.59443848 1.41210938 73.87036133 C3.33586928 63.59520653 4.55321426 53.44554247 5 43 C6.65 42.34 8.3 41.68 10 41 C10 40.34 10 39.68 10 39 C8.8553125 38.9071875 8.8553125 38.9071875 7.6875 38.8125 C5 38 5 38 3.5 35.8125 C3.005 34.884375 2.51 33.95625 2 33 C0.39794915 30.93814604 -1.29606167 28.98025265 -3 27 C-1.9024777 24.00675737 -1.32317108 23.15389099 1.625 21.75 C2.40875 21.5025 3.1925 21.255 4 21 C3.71125 20.38125 3.4225 19.7625 3.125 19.125 C0.90321433 12.95337315 -0.3460143 6.57427168 0 0 Z " transform="translate(183,76)" style="fill: #FDF8FA;"></path><path d="M0 0 C5.18285656 3.94884309 8.36671309 9.69990369 9.31640625 16.1484375 C9.43946783 20.43098058 8.58079001 24.04802497 7 28 C6.071875 26.7934375 6.071875 26.7934375 5.125 25.5625 C3.25835959 22.96125481 3.25835959 22.96125481 1 22 C0.566875 22.78375 0.13375 23.5675 -0.3125 24.375 C-2 27 -2 27 -5 29 C-9.25330603 28.72851238 -11.80936889 27.82248136 -15 25 C-15.33 25.99 -15.66 26.98 -16 28 C-16.9793879 29.02019573 -17.97895449 30.02149805 -19 31 C-20.14352916 33.28705831 -20.10334439 34.59264762 -20.0625 37.125 C-20.041875 38.40375 -20.02125 39.6825 -20 41 C-22.25 42.125 -22.25 42.125 -25 43 C-27.3125 42.125 -27.3125 42.125 -29 41 C-27.02 40.505 -27.02 40.505 -25 40 C-25.33 39.113125 -25.66 38.22625 -26 37.3125 C-27.5517756 31.78500734 -28.05398387 25.63844518 -27 20 C-24.47265625 17.73046875 -24.47265625 17.73046875 -22 16 C-22 15.34 -22 14.68 -22 14 C-22.66 13.67 -23.32 13.34 -24 13 C-22.6104501 7.75058925 -19.39576724 4.90553554 -15 2 C-10.0272827 -0.39139356 -5.37383918 -1.95412334 0 0 Z " transform="translate(65,101)" style="fill: #9B5BA7;"></path><path d="M0 0 C1.13087014 3.39261042 0.86514295 4.16517757 -0.21484375 7.44921875 C-0.48876953 8.29677734 -0.76269531 9.14433594 -1.04492188 10.01757812 C-1.33947266 10.89865234 -1.63402344 11.77972656 -1.9375 12.6875 C-2.22818359 13.58017578 -2.51886719 14.47285156 -2.81835938 15.39257812 C-3.53769987 17.59776948 -4.26516672 19.79993258 -5 22 C-5.66 22 -6.32 22 -7 22 C-7.04640625 22.58007812 -7.0928125 23.16015625 -7.140625 23.7578125 C-9.83751924 30.79425475 -24.64597774 35.91033354 -31.02734375 38.87109375 C-34.14275542 40.0542133 -36.6631332 40.85743693 -40 41 C-42.5546875 39.56640625 -42.5546875 39.56640625 -44.875 37.5625 C-45.65617188 36.90378906 -46.43734375 36.24507812 -47.2421875 35.56640625 C-47.82226562 35.04949219 -48.40234375 34.53257812 -49 34 C-48.62571082 30.27389446 -47.87994769 27.25919953 -46 24 C-41.97062991 21.42866071 -37.62075586 20.17633015 -33.0625 18.8125 C-21.25411221 15.05793848 -10.13727719 10.64337031 -1 2 C-0.67 1.34 -0.34 0.68 0 0 Z " transform="translate(179,168)" style="fill: #C2B2CE;"></path><path d="M0 0 C0.495 0.165 0.99 0.33 1.5 0.5 C4.13752469 1.12787383 4.13752469 1.12787383 7.4375 0.875 C15.88124541 0.77994846 24.34394798 2.74522209 31 8 C31.99 8.33 32.98 8.66 34 9 C34 9.66 34 10.32 34 11 C39.94 10.505 39.94 10.505 46 10 C46.66 8.35 47.32 6.7 48 5 C48.33 5 48.66 5 49 5 C49.495 9.95 49.495 9.95 50 15 C50.99 15.33 51.98 15.66 53 16 C52.34 16 51.68 16 51 16 C51 19.3 51 22.6 51 26 C50.67 26 50.34 26 50 26 C50 23.03 50 20.06 50 17 C48.35 17.99 46.7 18.98 45 20 C46.67711101 23.61223909 48.33438885 27.16719443 52 29 C52 30.32 52 31.64 52 33 C53.65 33.33 55.3 33.66 57 34 C57 34.66 57 35.32 57 36 C56.03320312 36.29003906 56.03320312 36.29003906 55.046875 36.5859375 C52.65648799 37.88708247 52.65648799 37.88708247 52.390625 41.0390625 C52.34421875 42.22242188 52.2978125 43.40578125 52.25 44.625 C52.16492188 46.40777344 52.16492188 46.40777344 52.078125 48.2265625 C52.03945312 49.59941406 52.03945312 49.59941406 52 51 C51.67 51 51.34 51 51 51 C50.505 47.04 50.505 47.04 50 43 C49.34 43 48.68 43 48 43 C47.505 43.99 47.505 43.99 47 45 C45 43 45 43 44.875 39.5 C44.22673994 33.31917567 40.03084827 29.42844895 36 25 C35.30390625 24.18789062 34.6078125 23.37578125 33.890625 22.5390625 C28.19695367 16.28433597 21.35249531 11.489472 12.66796875 10.8203125 C5.98662682 11.40796399 0.96824683 14.7623777 -4 19 C-3.73958333 17.01432292 -3.47916667 15.02864583 -3.21875 13.04296875 C-2.946767 10.84528294 -2.946767 10.84528294 -3 8 C-2.67 7.01 -2.34 6.02 -2 5 C-0.67696283 4.6278958 0.65737935 4.29369827 2 4 C2.33 3.34 2.66 2.68 3 2 C2.01 1.67 1.02 1.34 0 1 C0 0.67 0 0.34 0 0 Z " transform="translate(136,81)" style="fill: #421731;"></path><path d="M0 0 C-0.23396484 0.95712891 -0.23396484 0.95712891 -0.47265625 1.93359375 C-0.66730469 2.75988281 -0.86195313 3.58617187 -1.0625 4.4375 C-1.25972656 5.26121094 -1.45695312 6.08492187 -1.66015625 6.93359375 C-1.77230469 7.61550781 -1.88445312 8.29742187 -2 9 C-1.505 9.495 -1.505 9.495 -1 10 C-0.85822143 13.00003445 -0.95771229 15.99757235 -1 19 C-9.17698298 21.0787528 -17.09217577 21.33430452 -25.5 21.3125 C-26.77359375 21.32861328 -28.0471875 21.34472656 -29.359375 21.36132812 C-31.17695312 21.36229492 -31.17695312 21.36229492 -33.03125 21.36328125 C-34.13017578 21.36626221 -35.22910156 21.36924316 -36.36132812 21.37231445 C-37.23208984 21.24945068 -38.10285156 21.12658691 -39 21 C-41 18 -41 18 -41 14 C-40.34 14 -39.68 14 -39 14 C-39.27714844 13.45730469 -39.55429688 12.91460937 -39.83984375 12.35546875 C-40.20207031 11.64003906 -40.56429687 10.92460937 -40.9375 10.1875 C-41.29714844 9.47980469 -41.65679687 8.77210938 -42.02734375 8.04296875 C-43 6 -43 6 -44 3 C-33.44 3 -22.88 3 -12 3 C-12 2.34 -12 1.68 -12 1 C-7.95858806 0.36605303 -4.0934693 -0.12404452 0 0 Z " transform="translate(133,193)" style="fill: #F9D2CA;"></path><path d="M0 0 C7.66767515 1.43036142 13.24788299 7.27258335 17.5546875 13.4765625 C21.66916707 20.67386747 22.05951094 27.31525016 21.5546875 35.4765625 C23.2046875 35.4765625 24.8546875 35.4765625 26.5546875 35.4765625 C24.5546875 37.4765625 24.5546875 37.4765625 20.640625 37.671875 C19.07019399 37.65856626 17.49982529 37.63469852 15.9296875 37.6015625 C15.12789062 37.59253906 14.32609375 37.58351562 13.5 37.57421875 C11.51810227 37.55062473 9.53635769 37.51475315 7.5546875 37.4765625 C7.5546875 37.1465625 7.5546875 36.8165625 7.5546875 36.4765625 C11.5146875 36.4765625 15.4746875 36.4765625 19.5546875 36.4765625 C16.66350221 29.76901262 13.23897219 24.81870484 6.5546875 21.4765625 C6.2865625 22.4459375 6.0184375 23.4153125 5.7421875 24.4140625 C5.3503125 25.4246875 4.9584375 26.4353125 4.5546875 27.4765625 C3.5646875 27.8065625 2.5746875 28.1365625 1.5546875 28.4765625 C-3.3203125 23.7265625 -3.3203125 23.7265625 -4.4453125 21.4765625 C-6.09357361 24.44343251 -6.88802337 27.13282775 -7.4453125 30.4765625 C-12.65802799 24.39506109 -13.71044315 20.29791665 -13.4453125 12.4765625 C-8.0003125 13.4665625 -8.0003125 13.4665625 -2.4453125 14.4765625 C-2.7753125 13.4865625 -3.1053125 12.4965625 -3.4453125 11.4765625 C-8.49540845 10.53870168 -8.49540845 10.53870168 -13.4453125 11.4765625 C-13.18809094 7.78972009 -12.58950493 5.69052547 -10.5078125 2.6015625 C-6.75998863 0.00103165 -4.48185529 -0.2526862 0 0 Z " transform="translate(150.4453125,92.5234375)" style="fill: #9C5DA1;"></path><path d="M0 0 C2.19921875 1.36328125 2.19921875 1.36328125 5.32421875 3.80078125 C4.33421875 4.13078125 3.34421875 4.46078125 2.32421875 4.80078125 C3.14921875 5.74953125 3.97421875 6.69828125 4.82421875 7.67578125 C7.32421875 10.55078125 7.32421875 10.55078125 7.32421875 12.80078125 C4.58236722 11.75242625 2.10831804 10.67320356 -0.42578125 9.17578125 C-6.24296155 6.71466651 -11.53725211 7.16462965 -17.48828125 9.11328125 C-27.79872743 13.70640836 -35.65674429 22.52692419 -40.60546875 32.49609375 C-42.31163025 37.76402305 -41.82240919 42.45306269 -40.67578125 47.80078125 C-43.31578125 47.47078125 -45.95578125 47.14078125 -48.67578125 46.80078125 C-48.67578125 45.48078125 -48.67578125 44.16078125 -48.67578125 42.80078125 C-50.09890625 42.61515625 -50.09890625 42.61515625 -51.55078125 42.42578125 C-54.67578125 41.80078125 -54.67578125 41.80078125 -56.67578125 39.80078125 C-53.70578125 39.30578125 -53.70578125 39.30578125 -50.67578125 38.80078125 C-50.01578125 29.23078125 -49.35578125 19.66078125 -48.67578125 9.80078125 C-48.34578125 9.80078125 -48.01578125 9.80078125 -47.67578125 9.80078125 C-47.67578125 16.40078125 -47.67578125 23.00078125 -47.67578125 29.80078125 C-45.36578125 25.84078125 -43.05578125 21.88078125 -40.67578125 17.80078125 C-41.66578125 17.16140625 -42.65578125 16.52203125 -43.67578125 15.86328125 C-44.66578125 15.18265625 -45.65578125 14.50203125 -46.67578125 13.80078125 C-46.67578125 13.47078125 -46.67578125 13.14078125 -46.67578125 12.80078125 C-45.91394531 12.74921875 -45.15210938 12.69765625 -44.3671875 12.64453125 C-36.89532631 11.82365262 -33.13438706 10.0669705 -27.80078125 4.84765625 C-19.90184455 -2.76087837 -10.28542288 -4.60967127 0 0 Z " transform="translate(69.67578125,92.19921875)" style="fill: #401832;"></path><path d="M0 0 C8.41475152 7.88882955 14.92709168 17.56945444 21.72216797 26.82983398 C30.79289909 39.18370957 40.29034811 51.14448461 50 63 C49.67 63.66 49.34 64.32 49 65 C48.01 64.67 47.02 64.34 46 64 C46.0407666 64.98395752 46.0815332 65.96791504 46.12353516 66.98168945 C46.27200109 70.63220651 46.40664161 74.2831252 46.53710938 77.93432617 C46.59550995 79.51454828 46.65765976 81.09463647 46.72363281 82.67456055 C46.81781156 84.94555273 46.89849754 87.21668515 46.9765625 89.48828125 C47.00875885 90.19463211 47.0409552 90.90098297 47.0741272 91.6287384 C47.18818461 95.36316474 47.13587418 96.79618873 45 100 C45.01160156 99.25016846 45.02320313 98.50033691 45.03515625 97.7277832 C45.43985332 77.35798928 45.43985332 77.35798928 36 60 C35.19533428 58.64452144 34.41743505 57.27214131 33.6875 55.875 C32.22813353 53.08269935 32.22813353 53.08269935 30.48828125 51.5703125 C28.34683516 49.31083395 27.77289961 46.85768449 26.84375 43.9375 C25.89247536 41.75309156 24.72503229 40.61579542 23 39 C21.8125 36.8125 21.8125 36.8125 21 35 C20.34 35 19.68 35 19 35 C19 33.68 19 32.36 19 31 C18.34 31 17.68 31 17 31 C16.75378906 30.28972656 16.50757813 29.57945313 16.25390625 28.84765625 C14.39516021 24.62639187 11.57214715 21.26495135 8.77734375 17.62109375 C7.16141235 15.23803887 6.47699685 13.77745001 6 11 C5.20003343 8.81601365 5.20003343 8.81601365 4 7 C3.01 6.67 2.02 6.34 1 6 C0.67 4.02 0.34 2.04 0 0 Z " transform="translate(163,42)" style="fill: #C6B8C4;"></path><path d="M0 0 C3.91477655 0.40527926 7.8291399 0.81432279 11.74316406 1.22680664 C13.72700661 1.43508597 15.71115851 1.64041194 17.6953125 1.84570312 C18.94570312 1.97783203 20.19609375 2.10996094 21.484375 2.24609375 C22.63647461 2.36654053 23.78857422 2.4869873 24.97558594 2.61108398 C31.53532202 3.45461479 31.53532202 3.45461479 33.484375 5.7421875 C33.90203125 6.44601563 34.3196875 7.14984375 34.75 7.875 C35.17796875 8.57367188 35.6059375 9.27234375 36.046875 9.9921875 C37 12 37 12 37 15 C35.68 15 34.36 15 33 15 C32.175 15.886875 31.35 16.77375 30.5 17.6875 C28.953125 19.0703125 28.953125 19.0703125 27 20 C19.37840707 19.44930687 11.94424991 16.0265868 5 13 C5 11.02 5 9.04 5 7 C4.34 7 3.68 7 3 7 C2.87625 6.030625 2.7525 5.06125 2.625 4.0625 C2.41875 3.051875 2.2125 2.04125 2 1 C1.34 0.67 0.68 0.34 0 0 Z " transform="translate(57,192)" style="fill: #C6B7D2;"></path><path d="M0 0 C0.33 0.99 0.66 1.98 1 3 C0.34 3 -0.32 3 -1 3 C-1.33 7.29 -1.66 11.58 -2 16 C-1.34 16 -0.68 16 0 16 C-1 19 -1 19 -2.70703125 19.984375 C-3.40183594 20.23703125 -4.09664062 20.4896875 -4.8125 20.75 C-5.49957031 21.01296875 -6.18664062 21.2759375 -6.89453125 21.546875 C-9.39339112 22.08466302 -10.61955899 21.91412647 -13 21 C-15.140625 19.58984375 -15.140625 19.58984375 -17.25 17.9375 C-17.95640625 17.38964844 -18.6628125 16.84179688 -19.390625 16.27734375 C-19.92171875 15.85582031 -20.4528125 15.43429688 -21 15 C-20.69117542 11.21322245 -20.00998219 8.25071193 -18 5 C-12.35181557 1.83896197 -6.47753467 0 0 0 Z " transform="translate(151,187)" style="fill: #C1B0C9;"></path><path d="M0 0 C4.875 4.625 4.875 4.625 6 8 C3.492084 13.86409772 -0.91281234 15.33978027 -6.484375 17.76953125 C-11.2730032 19.44555112 -15.92215541 20.22288249 -21 20 C-22 19 -22 19 -22.3125 15.8125 C-21.94595297 11.34062619 -20.85664995 9.41210966 -18 6 C-16.0625 4.4375 -16.0625 4.4375 -14 4 C-12.32580562 4.9873454 -10.65948148 5.98812105 -9 7 C-6.38608611 7.24401278 -6.38608611 7.24401278 -4 6 C-1.66585353 3.04150073 -1.66585353 3.04150073 0 0 Z " transform="translate(66,122)" style="fill: #F4C0DD;"></path><path d="M0 0 C0.33 0 0.66 0 1 0 C1 3.96 1 7.92 1 12 C1.66 12.33 2.32 12.66 3 13 C2.54625 13.474375 2.0925 13.94875 1.625 14.4375 C-3.47051949 22.47274228 -2.20163869 32.87024815 -2 42 C-4.475 42.495 -4.475 42.495 -7 43 C-5.02 43.99 -3.04 44.98 -1 46 C-3.64 50.95 -6.28 55.9 -9 61 C-9.33 61 -9.66 61 -10 61 C-10.69634449 40.31321227 -9.45681063 18.91362127 0 0 Z " transform="translate(31,63)" style="fill: #D1BDCB;"></path><path d="M0 0 C0.433125 0.598125 0.86625 1.19625 1.3125 1.8125 C2.78573882 3.72225402 4.18182492 5.41897819 6 7 C6.66 7 7.32 7 8 7 C8.99 5.02 9.98 3.04 11 1 C16.48189702 2.32894473 19.9577509 6.46116062 23 11 C23.703125 13.76171875 23.703125 13.76171875 24 16 C15.71627267 16.97802186 8.64038944 17.74463043 1 14 C0.154375 13.608125 -0.69125 13.21625 -1.5625 12.8125 C-3.60585007 10.23610208 -3.48772772 8.09295518 -3.33984375 4.875 C-3 3 -3 3 -1.5 1 C-1.005 0.67 -0.51 0.34 0 0 Z " transform="translate(146,113)" style="fill: #F8C1E0;"></path><path d="M0 0 C-0.33 1.65 -0.66 3.3 -1 5 C-0.01 5.33 0.98 5.66 2 6 C0.63016497 9.16115776 0.0109362 9.9927092 -3 12 C-3.404939 14.88643628 -3.404939 14.88643628 -3.25 18.1875 C-3.21132813 19.93160156 -3.21132813 19.93160156 -3.171875 21.7109375 C-2.98873392 25.21559185 -2.64129872 28.55301936 -2 32 C-10.87892377 31.11210762 -10.87892377 31.11210762 -14 29 C-15.56374501 25.68047112 -15.50337988 22.59230185 -15 19 C-6.78935939 0 -6.78935939 0 0 0 Z " transform="translate(42,109)" style="fill: #FCF5FB;"></path><path d="M0 0 C0 0.33 0 0.66 0 1 C-4.95 2.485 -4.95 2.485 -10 4 C-10 4.66 -10 5.32 -10 6 C-6.7 6.33 -3.4 6.66 0 7 C-1.32 7.33 -2.64 7.66 -4 8 C-4 8.66 -4 9.32 -4 10 C-3.34 10.33 -2.68 10.66 -2 11 C-2.33 11.66 -2.66 12.32 -3 13 C-2.37867188 13.22816406 -1.75734375 13.45632812 -1.1171875 13.69140625 C1.67793213 15.41901709 1.98618993 16.81750176 2.875 19.9375 C3.14054687 20.81277344 3.40609375 21.68804687 3.6796875 22.58984375 C4 25 4 25 2 28 C-1.40320742 26.98823563 -2.75725331 26.35156418 -4.8125 23.375 C-5.204375 22.59125 -5.59625 21.8075 -6 21 C-7.64826111 23.96687001 -8.44271087 26.65626525 -9 30 C-14.21271549 23.91849859 -15.26513065 19.82135415 -15 12 C-9.555 12.99 -9.555 12.99 -4 14 C-4.33 13.01 -4.66 12.02 -5 11 C-10.05009595 10.06213918 -10.05009595 10.06213918 -15 11 C-14.73991338 7.27209179 -14.15299098 5.21992454 -12 2.125 C-7.94151026 -0.74976357 -4.81765499 -0.47231912 0 0 Z " transform="translate(152,93)" style="fill: #7F4090;"></path><path d="M0 0 C9.61805032 4.13745985 18.73627412 13.04970567 23.74609375 22.234375 C24.13671875 25.6640625 24.13671875 25.6640625 23.99609375 29.109375 C23.96 30.26179688 23.92390625 31.41421875 23.88671875 32.6015625 C23.8403125 33.47039062 23.79390625 34.33921875 23.74609375 35.234375 C19.29109375 35.729375 19.29109375 35.729375 14.74609375 36.234375 C14.7925 35.41195312 14.83890625 34.58953125 14.88671875 33.7421875 C15.22318368 23.33580785 13.62609419 16.33299622 6.87109375 8.296875 C0.74339179 1.91009741 -4.65888103 0.72697526 -13.25390625 0.234375 C-8.47432776 -2.42439485 -5.15228654 -1.75017013 0 0 Z " transform="translate(156.25390625,92.765625)" style="fill: #FBF1F9;"></path><path d="M0 0 C0.66 0.33 1.32 0.66 2 1 C0.89591797 1.87011719 0.89591797 1.87011719 -0.23046875 2.7578125 C-5.37765979 6.87828512 -9.96339517 10.79147764 -14 16 C-14.66 16.33 -15.32 16.66 -16 17 C-16.86865063 18.56357113 -17.73591659 20.12792188 -18.59765625 21.6953125 C-22.03049562 27.33702623 -26.06133055 33.35635445 -30.984375 37.78515625 C-34.06291683 41.16797256 -35.78279522 45.14898677 -37.75 49.25 C-38.36681641 50.51070312 -38.36681641 50.51070312 -38.99609375 51.796875 C-40.00476685 53.86113624 -41.00575457 55.92876143 -42 58 C-42.66 58 -43.32 58 -44 58 C-40.91793956 43.58162532 -32.6843762 30.84497924 -23 20 C-22.14178126 18.89897988 -21.28686362 17.79536559 -20.4375 16.6875 C-17.87463283 13.86177466 -15.21550889 11.79985742 -12.12890625 9.5859375 C-9.1510214 7.36754989 -6.41919373 4.90417283 -3.6640625 2.41796875 C-2 1 -2 1 0 0 Z " transform="translate(49,16)" style="fill: #CDC1CC;"></path><path d="M0 0 C3.10465605 5.58838089 3.10585301 10.75467219 3 17 C-0.21182149 18.90608098 -2.53882603 19.22266247 -6.25 19.125 C-7.14203125 19.10695313 -8.0340625 19.08890625 -8.953125 19.0703125 C-9.62859375 19.04710938 -10.3040625 19.02390625 -11 19 C-11 18.34 -11 17.68 -11 17 C-11.680625 16.9175 -12.36125 16.835 -13.0625 16.75 C-16.98999525 15.74723526 -19.62257557 14.27326644 -23 12 C-23.9375 9.75 -23.9375 9.75 -24 8 C-21.25648576 8.99071348 -19.21135401 9.81506524 -17 11.75 C-16.34 12.1625 -15.68 12.575 -15 13 C-10.98163735 11.83359608 -8.33155914 9.83900547 -5.25 7.0625 C-4.47140625 6.37285156 -3.6928125 5.68320313 -2.890625 4.97265625 C-0.77932593 3.05151982 -0.77932593 3.05151982 0 0 Z " transform="translate(181,73)" style="fill: #7C3F55;"></path><path d="M0 0 C0.33 0 0.66 0 1 0 C1 6.6 1 13.2 1 20 C1.99 18.68 2.98 17.36 4 16 C4.598125 16.309375 5.19625 16.61875 5.8125 16.9375 C8.08956772 18.10209704 8.08956772 18.10209704 11 19 C9.9790625 20.36125 9.9790625 20.36125 8.9375 21.75 C5.90005583 26.91898395 7.14087498 32.31296588 8 38 C5.36 37.67 2.72 37.34 0 37 C0 35.68 0 34.36 0 33 C-1.423125 32.814375 -1.423125 32.814375 -2.875 32.625 C-6 32 -6 32 -8 30 C-6.02 29.67 -4.04 29.34 -2 29 C-1.34 19.43 -0.68 9.86 0 0 Z " transform="translate(21,102)" style="fill: #5A2C44;"></path><path d="M0 0 C0 3 0 3 -1 4 C0.98 4.66 2.96 5.32 5 6 C5 6.33 5 6.66 5 7 C4.22914062 7.02578125 3.45828125 7.0515625 2.6640625 7.078125 C1.66117188 7.13484375 0.65828125 7.1915625 -0.375 7.25 C-1.37273437 7.29640625 -2.37046875 7.3428125 -3.3984375 7.390625 C-4.25695312 7.59171875 -5.11546875 7.7928125 -6 8 C-7.19475385 9.8580725 -7.19475385 9.8580725 -8 12 C-12.6280486 16.33312393 -18.28954639 19.38310486 -23.7421875 22.54296875 C-25.77361272 23.85390579 -27.21150978 25.08773104 -28.8125 26.875 C-31 29 -31 29 -33.8125 29.3125 C-34.534375 29.209375 -35.25625 29.10625 -36 29 C-36 28.01 -36 27.02 -36 26 C-35.01 26 -34.02 26 -33 26 C-33 25.34 -33 24.68 -33 24 C-31.63361895 23.12411471 -30.26465287 22.25212661 -28.88671875 21.39453125 C-26.58867182 19.69597482 -24.81232172 17.7246474 -22.875 15.625 C-17.99313216 10.60198972 -12.52405067 7.49794733 -6 5 C-5.01 5 -4.02 5 -3 5 C-2.690625 4.360625 -2.38125 3.72125 -2.0625 3.0625 C-1 1 -1 1 0 0 Z " transform="translate(66,75)" style="fill: #E3CBDD;"></path><path d="M0 0 C0.66 1.65 1.32 3.3 2 5 C3.32 5 4.64 5 6 5 C5.01 5.495 5.01 5.495 4 6 C3.67 6.99 3.34 7.98 3 9 C2.0206121 10.02019573 1.02104551 11.02149805 0 12 C-1.14352916 14.28705831 -1.10334439 15.59264762 -1.0625 18.125 C-1.041875 19.40375 -1.02125 20.6825 -1 22 C-3.25 23.125 -3.25 23.125 -6 24 C-8.3125 23.125 -8.3125 23.125 -10 22 C-8.68 21.67 -7.36 21.34 -6 21 C-6.15597656 20.41992188 -6.31195313 19.83984375 -6.47265625 19.2421875 C-7.66056198 14.47483073 -8.24917875 10.87179712 -7 6 C-6.34 6 -5.68 6 -5 6 C-5 4.35 -5 2.7 -5 1 C-3 0 -3 0 0 0 Z " transform="translate(46,120)" style="fill: #A66DAA;"></path><path d="M0 0 C2.2109885 0.42793326 3.98119242 0.99059621 6 2 C6 3.32 6 4.64 6 6 C7.65 6.33 9.3 6.66 11 7 C11 7.66 11 8.32 11 9 C10.03320312 9.29003906 10.03320312 9.29003906 9.046875 9.5859375 C6.65648799 10.88708247 6.65648799 10.88708247 6.390625 14.0390625 C6.32101563 15.81410156 6.32101563 15.81410156 6.25 17.625 C6.19328125 18.81351563 6.1365625 20.00203125 6.078125 21.2265625 C6.05234375 22.14179688 6.0265625 23.05703125 6 24 C5.67 24 5.34 24 5 24 C4.67 21.36 4.34 18.72 4 16 C3.34 16 2.68 16 2 16 C1.67 16.66 1.34 17.32 1 18 C-1.28717987 15.71282013 -1.29522074 15.09361522 -1.5625 12 C-1.77684784 9.62030153 -1.92338668 8.15322664 -3 6 C-1.44444444 1.44444444 -1.44444444 1.44444444 0 0 Z " transform="translate(182,108)" style="fill: #651F3C;"></path><path d="M0 0 C1.98 0.99 3.96 1.98 6 3 C6.38747513 13.24656458 5.58045976 22.03143819 3 32 C2.67 32 2.34 32 2 32 C1.66200308 27.97954457 1.33043881 23.95858312 1 19.9375 C0.90460938 18.80376953 0.80921875 17.67003906 0.7109375 16.50195312 C0.2604244 10.98316765 -0.12859272 5.53752411 0 0 Z " transform="translate(208,104)" style="fill: #DDCEDD;"></path><path d="M0 0 C5.445 0.99 5.445 0.99 11 2 C11.33 5.3 11.66 8.6 12 12 C11.01 11.01 10.02 10.02 9 9 C7.35173889 11.96687001 6.55728913 14.65626525 6 18 C0.78728451 11.91849859 -0.26513065 7.82135415 0 0 Z " transform="translate(137,105)" style="fill: #A668A9;"></path><path d="M0 0 C6.09644532 0.11289714 11.31690387 1.66409675 15.7734375 5.86328125 C16.50820312 6.65089844 17.24296875 7.43851562 18 8.25 C14.91595192 8.13979143 11.83308808 8.00924186 8.75 7.875 C7.44095703 7.82859375 7.44095703 7.82859375 6.10546875 7.78125 C5.26113281 7.74257812 4.41679687 7.70390625 3.546875 7.6640625 C2.77182617 7.6326416 1.99677734 7.6012207 1.19824219 7.56884766 C-1.20865742 7.21973494 -2.89602295 6.44448896 -5 5.25 C-3.88767123 0.3239726 -3.88767123 0.3239726 0 0 Z " transform="translate(141,75.75)" style="fill: #F6EBF4;"></path><path d="M0 0 C0.33 0 0.66 0 1 0 C1 3.96 1 7.92 1 12 C1.66 12.33 2.32 12.66 3 13 C2.45730469 13.64324219 1.91460937 14.28648438 1.35546875 14.94921875 C-4.23307544 22.00790249 -6.64570982 28.12657789 -8 37 C-8.33 37 -8.66 37 -9 37 C-8.84058487 29.6089347 -7.6058159 22.77758063 -5.625 15.6875 C-5.41593018 14.93549316 -5.20686035 14.18348633 -4.99145508 13.40869141 C-3.64636029 8.76423973 -1.99071332 4.40634497 0 0 Z " transform="translate(31,63)" style="fill: #AAA3A9;"></path><path d="M0 0 C8.46365369 7.93467533 15.10768508 17.71452017 22 27 C21.67 27.66 21.34 28.32 21 29 C20.34 28.34 19.68 27.68 19 27 C18.34 28.32 17.68 29.64 17 31 C16.75378906 30.28972656 16.50757813 29.57945313 16.25390625 28.84765625 C14.39516021 24.62639187 11.57214715 21.26495135 8.77734375 17.62109375 C7.16141235 15.23803887 6.47699685 13.77745001 6 11 C5.20003343 8.81601365 5.20003343 8.81601365 4 7 C3.01 6.67 2.02 6.34 1 6 C0.67 4.02 0.34 2.04 0 0 Z " transform="translate(163,42)" style="fill: #B7B0B6;"></path><path d="M0 0 C1.98 0 3.96 0 6 0 C6.33 0.99 6.66 1.98 7 3 C8.65 3.33 10.3 3.66 12 4 C11.67515625 4.81791016 11.67515625 4.81791016 11.34375 5.65234375 C9.23652196 11.3594197 8.71077508 15.9262767 9 22 C6.92195591 19.92195591 6.31672853 18.63400605 5.2734375 15.9375 C4.9640625 15.14085937 4.6546875 14.34421875 4.3359375 13.5234375 C4.01882812 12.69070312 3.70171875 11.85796875 3.375 11 C3.05015625 10.16726562 2.7253125 9.33453125 2.390625 8.4765625 C0 2.26897321 0 2.26897321 0 0 Z " transform="translate(15,135)" style="fill: #F1E2E6;"></path><path d="M0 0 C1.91595968 -0.08133791 3.83291932 -0.13934367 5.75 -0.1875 C7.35101563 -0.23970703 7.35101563 -0.23970703 8.984375 -0.29296875 C13.14379869 0.11112034 14.84868206 1.63962696 17.484375 4.75390625 C17.90203125 5.35074219 18.3196875 5.94757813 18.75 6.5625 C19.17796875 7.16191406 19.6059375 7.76132813 20.046875 8.37890625 C21 10 21 10 21 12 C17.2089881 10.55049545 13.6125362 8.84827434 10 7 C10 6.34 10 5.68 10 5 C6.7 5 3.4 5 0 5 C0 3.35 0 1.7 0 0 Z " transform="translate(56,93)" style="fill: #5E1435;"></path><path d="M0 0 C3.875 1.75 3.875 1.75 5 4 C5.16796875 6.05859375 5.16796875 6.05859375 5.1875 8.4375 C5.20167969 9.21996094 5.21585938 10.00242187 5.23046875 10.80859375 C5 13 5 13 3 16 C0 16 0 16 -1.6875 14.5625 C-3.58601601 10.8558735 -3.76809261 7.08896363 -3 3 C-1.4765625 1.22265625 -1.4765625 1.22265625 0 0 Z " transform="translate(57,114)" style="fill: #82418F;"></path><path d="M0 0 C0 4.25074755 -2.30027404 6.87411134 -4.5625 10.3125 C-9.27983947 17.64347778 -13.28036743 25.11733494 -17 33 C-17.66 33 -18.32 33 -19 33 C-17.55328358 26.23202778 -14.8126166 20.28068378 -11.625 14.1875 C-11.24996338 13.45861572 -10.87492676 12.72973145 -10.48852539 11.97875977 C-7.89153224 7.12884578 -5.09150541 2.54575271 0 0 Z " transform="translate(24,41)" style="fill: #AA9FA8;"></path><path d="M0 0 C0 0.33 0 0.66 0 1 C-0.81791016 1.14695312 -0.81791016 1.14695312 -1.65234375 1.296875 C-8.70600925 2.69555055 -16.02663185 4.51052761 -21 10 C-20.67 10.33 -20.34 10.66 -20 11 C-19.73706944 15.03160191 -19.70595156 16.55892734 -22 20 C-22.66 20 -23.32 20 -24 20 C-24 21.65 -24 23.3 -24 25 C-24.66 25 -25.32 25 -26 25 C-26 26.98 -26 28.96 -26 31 C-26.33 31 -26.66 31 -27 31 C-27.28780886 27.29046364 -27.45377597 23.69960881 -27 20 C-24.5 17.4375 -24.5 17.4375 -22 16 C-22 15.34 -22 14.68 -22 14 C-22.66 13.67 -23.32 13.34 -24 13 C-22.6104501 7.75058925 -19.39576724 4.90553554 -15 2 C-9.84510628 -0.47900271 -5.65122506 -1.59393527 0 0 Z " transform="translate(65,101)" style="fill: #79507C;"></path><path d="M0 0 C1.67110042 2.96178773 2.32682752 5.37071192 2.625 8.75 C2.69976562 9.54921875 2.77453125 10.3484375 2.8515625 11.171875 C2.92503906 12.07679687 2.92503906 12.07679687 3 13 C2.34 12.34 1.68 11.68 1 11 C0.608125 11.495 0.21625 11.99 -0.1875 12.5 C-2.55091715 14.45593143 -4.01435003 14.24207973 -7 14 C-7.33 14.66 -7.66 15.32 -8 16 C-8.66 15.01 -9.32 14.02 -10 13 C-8.63017895 9.8129289 -7.15774857 8.06713092 -4.4375 5.9375 C-1.80562347 3.87467786 -1.09567461 3.28702382 0 0 Z " transform="translate(181,73)" style="fill: #BC6980;"></path><path d="M0 0 C1.11719475 3.35158426 0.84380263 3.75715069 0 7 C-0.22288501 9.58656673 -0.41314385 12.15952778 -0.5625 14.75 C-0.60568359 15.44738281 -0.64886719 16.14476563 -0.69335938 16.86328125 C-0.79889596 18.57531922 -0.8998991 20.28763561 -1 22 C-2.65 22 -4.3 22 -6 22 C-6.36351166 14.36625504 -5.59171315 7.93556441 -1.3125 1.4375 C-0.879375 0.963125 -0.44625 0.48875 0 0 Z " transform="translate(29,82)" style="fill: #DFD0DF;"></path><path d="M0 0 C3.25683284 3.01130664 5.53545763 6.13603769 7.8125 9.9375 C8.43769531 10.95714844 9.06289062 11.97679688 9.70703125 13.02734375 C11.13276621 16.30524194 11.10027627 17.66229041 10 21 C7.43904032 18.51017809 5.03794313 16.04769994 2.8125 13.25 C1.19690923 10.92512612 1.19690923 10.92512612 -1 10 C-1 9.01 -1 8.02 -1 7 C-0.34 7 0.32 7 1 7 C0.67 4.69 0.34 2.38 0 0 Z " transform="translate(161,54)" style="fill: #CBC3CA;"></path><path d="M0 0 C0 3.96 0 7.92 0 12 C-5.625 13.125 -5.625 13.125 -9.3125 11.5625 C-10.00988281 11.27503906 -10.70726562 10.98757812 -11.42578125 10.69140625 C-11.94527344 10.46324219 -12.46476563 10.23507813 -13 10 C-9.25 8 -9.25 8 -7 8 C-7 7.34 -7 6.68 -7 6 C-6.34 6 -5.68 6 -5 6 C-5 5.01 -5 4.02 -5 3 C-1.55555556 0 -1.55555556 0 0 0 Z " transform="translate(26,123)" style="fill: #681037;"></path><path d="M0 0 C2 0 2 0 3.69140625 1.6796875 C4.30886719 2.40414062 4.92632812 3.12859375 5.5625 3.875 C6.18253906 4.59429687 6.80257812 5.31359375 7.44140625 6.0546875 C9 8 9 8 10 10 C8.9790625 9.566875 8.9790625 9.566875 7.9375 9.125 C2.57697983 7.07203483 -2.21591804 5.5964594 -8 6 C-10.35355339 6.88214887 -10.35355339 6.88214887 -11 10 C-15.875 8.25 -15.875 8.25 -17 6 C-16.01 6 -15.02 6 -14 6 C-14 5.01 -14 4.02 -14 3 C-11.87506859 2.97306425 -9.75004088 2.95363372 -7.625 2.9375 C-6.44164062 2.92589844 -5.25828125 2.91429688 -4.0390625 2.90234375 C-1 3 -1 3 1 4 C0.67 2.68 0.34 1.36 0 0 Z " transform="translate(147,71)" style="fill: #4E3C40;"></path><path d="M0 0 C1.98747406 2.98121109 3.51304003 5.98982127 5.125 9.1875 C8.30173611 15.16645176 11.88310039 19.6007954 17 24 C16.01 24 15.02 24 14 24 C13.34 24.66 12.68 25.32 12 26 C5.69395881 18.43708462 0.66659531 9.9989297 0 0 Z " transform="translate(107,42)" style="fill: #534C50;"></path><path d="M0 0 C-0.95326172 0.17015625 -0.95326172 0.17015625 -1.92578125 0.34375 C-2.61027344 0.5603125 -3.29476562 0.776875 -4 1 C-5.23290201 3.45704762 -5.23290201 3.45704762 -6 6 C-7 7 -7 7 -10.5625 7.0625 C-11.696875 7.041875 -12.83125 7.02125 -14 7 C-14 6.34 -14 5.68 -14 5 C-16.475 4.01 -16.475 4.01 -19 3 C-13.04703442 -0.43440322 -6.66321844 -0.13326437 0 0 Z " transform="translate(101,0)" style="fill: #C3B3C2;"></path><path d="M0 0 C4.875 4.625 4.875 4.625 6 8 C4.54686539 11.30991772 3.59192118 12.71092221 0.3125 14.3125 C-0.450625 14.539375 -1.21375 14.76625 -2 15 C-1.979375 14.21625 -1.95875 13.4325 -1.9375 12.625 C-1.81315937 10.01885039 -1.81315937 10.01885039 -3 8 C-2.36959957 6.64914193 -1.69748583 5.31747324 -1 4 C-0.63215869 2.6757713 -0.28797019 1.34386088 0 0 Z " transform="translate(66,122)" style="fill: #ECB8DB;"></path><path d="M0 0 C0 0.33 0 0.66 0 1 C-4.95 2.485 -4.95 2.485 -10 4 C-10 4.66 -10 5.32 -10 6 C-6.7 6.33 -3.4 6.66 0 7 C-1.32 7.33 -2.64 7.66 -4 8 C-4 8.66 -4 9.32 -4 10 C-3.34 10.33 -2.68 10.66 -2 11 C-2.99 12.485 -2.99 12.485 -4 14 C-4.33 13.01 -4.66 12.02 -5 11 C-10.05009595 10.06213918 -10.05009595 10.06213918 -15 11 C-14.73991338 7.27209179 -14.15299098 5.21992454 -12 2.125 C-7.94151026 -0.74976357 -4.81765499 -0.47231912 0 0 Z " transform="translate(152,93)" style="fill: #8A5C94;"></path><path d="M0 0 C2.31 0.66 4.62 1.32 7 2 C5.84826645 4.46800047 4.95216435 6.04783565 3 8 C2.01 7.67 1.02 7.34 0 7 C0 8.65 0 10.3 0 12 C1.32 12.33 2.64 12.66 4 13 C1.36 14.98 -1.28 16.96 -4 19 C-3.73958333 17.01432292 -3.47916667 15.02864583 -3.21875 13.04296875 C-2.946767 10.84528294 -2.946767 10.84528294 -3 8 C-2.67 7.01 -2.34 6.02 -2 5 C-0.67696283 4.6278958 0.65737935 4.29369827 2 4 C2.33 3.34 2.66 2.68 3 2 C2.01 1.67 1.02 1.34 0 1 C0 0.67 0 0.34 0 0 Z " transform="translate(136,81)" style="fill: #57293C;"></path><path d="M0 0 C0.66 0 1.32 0 2 0 C1.76595745 19.72340426 1.76595745 19.72340426 -4 27 C-5.59197258 23.00999277 -4.30110209 19.66953032 -3.125 15.75 C-1.62746768 10.49656 -0.44504215 5.45176635 0 0 Z " transform="translate(203,136)" style="fill: #DEDADB;"></path><path d="M0 0 C0 3 0 3 -1 4 C0.98 4.66 2.96 5.32 5 6 C5 6.33 5 6.66 5 7 C3.081875 7.12375 3.081875 7.12375 1.125 7.25 C-5.62634993 8.00487535 -11.85543745 10.36742679 -17.4375 14.25 C-20 16 -20 16 -23 16 C-17.59016816 10.94298328 -10.76347014 5 -3 5 C-2.690625 4.360625 -2.38125 3.72125 -2.0625 3.0625 C-1 1 -1 1 0 0 Z " transform="translate(66,75)" style="fill: #493B3F;"></path><path d="M0 0 C2.21406567 3.3210985 3.6084831 6.74762256 5.0625 10.4375 C5.33126953 11.10587891 5.60003906 11.77425781 5.87695312 12.46289062 C7.12576352 15.60515916 8.31287661 18.68314513 9 22 C8.01 21.67 7.02 21.34 6 21 C5.67 19.35 5.34 17.7 5 16 C4.01 15.67 3.02 15.34 2 15 C-0.30070759 12.02432141 -2.15973527 8.74078846 -1.80859375 4.9140625 C-1.25 3 -1.25 3 0 0 Z " transform="translate(100,39)" style="fill: #9C8B8B;"></path><path d="M0 0 C10.29411765 5.58823529 10.29411765 5.58823529 12 9 C7.51209428 8.29550317 3.44363814 6.74722746 -0.75 5.0625 C-1.43449219 4.79759766 -2.11898437 4.53269531 -2.82421875 4.25976562 C-7.87846417 2.24307166 -7.87846417 2.24307166 -9 0 C-5.85258796 -1.57370602 -3.23043329 -1.04262662 0 0 Z " transform="translate(114,1)" style="fill: #837483;"></path><path d="M0 0 C0.99 0.33 1.98 0.66 3 1 C-0.71762752 3.54864775 -3.32630848 4.3802301 -7.8125 4.5625 C-11.42908538 4.77004519 -14.66263565 5.06019956 -18.125 6.125 C-22.87104005 7.19668646 -27.27185727 7.25132019 -32 6 C-33.79296875 4.44921875 -33.79296875 4.44921875 -35 3 C-33.7934375 3.2475 -33.7934375 3.2475 -32.5625 3.5 C-25.47581248 4.49462281 -18.74366917 3.95630742 -11.6875 3.125 C-10.99350098 3.04660889 -10.29950195 2.96821777 -9.58447266 2.88745117 C-5.9608915 2.42845249 -3.22778261 1.63974311 0 0 Z " transform="translate(129,148)" style="fill: #AE9792;"></path><path d="M0 0 C0.66 1.32 1.32 2.64 2 4 C0.61860662 5.3482881 -0.7807648 6.67817378 -2.1875 8 C-2.96480469 8.7425 -3.74210937 9.485 -4.54296875 10.25 C-7.33045204 12.23536171 -8.65781368 12.37992882 -12 12 C-12 11.01 -12 10.02 -12 9 C-11.01 9 -10.02 9 -9 9 C-9 8.34 -9 7.68 -9 7 C-7.02053408 5.63636792 -5.0180755 4.30581356 -3 3 C-1.20605554 1.37648891 -1.20605554 1.37648891 0 0 Z " transform="translate(42,92)" style="fill: #DFCADB;"></path><path d="M0 0 C0.33 1.32 0.66 2.64 1 4 C0.01 4.33 -0.98 4.66 -2 5 C-2.309375 5.969375 -2.61875 6.93875 -2.9375 7.9375 C-4 11 -4 11 -6.0625 12.125 C-6.701875 12.41375 -7.34125 12.7025 -8 13 C-8.165 13.66 -8.33 14.32 -8.5 15 C-9 17 -9 17 -11.0625 18.25 C-11.701875 18.4975 -12.34125 18.745 -13 19 C-11.52239021 14.65550599 -9.27984593 11.4452532 -6.5 7.8125 C-5.7059375 6.76707031 -4.911875 5.72164062 -4.09375 4.64453125 C-2 2 -2 2 0 0 Z " transform="translate(53,28)" style="fill: #A398A1;"></path><path d="M0 0 C0.33 0 0.66 0 1 0 C2.04009453 9.37490608 1.86013271 17.74545543 0 27 C-0.33 27 -0.66 27 -1 27 C-1 20.4 -1 13.8 -1 7 C-2.32 6.67 -3.64 6.34 -5 6 C-4.67 5.34 -4.34 4.68 -4 4 C-2.68 4 -1.36 4 0 4 C0 2.68 0 1.36 0 0 Z " transform="translate(186,120)" style="fill: #B59799;"></path><path d="M0 0 C1.28497537 3.85492611 0.4052209 5.40346836 -0.9375 9.1875 C-1.31777344 10.27417969 -1.69804687 11.36085937 -2.08984375 12.48046875 C-2.39019531 13.31191406 -2.69054687 14.14335937 -3 15 C-3.33 15 -3.66 15 -4 15 C-4 13.35 -4 11.7 -4 10 C-5.98 10 -7.96 10 -10 10 C-6.66666667 6.66666667 -3.33333333 3.33333333 0 0 Z " transform="translate(179,168)" style="fill: #79707A;"></path><path d="M0 0 C0 2.97 0 5.94 0 9 C0.66 9 1.32 9 2 9 C1.67 10.65 1.34 12.3 1 14 C0.6596875 13.1646875 0.6596875 13.1646875 0.3125 12.3125 C-1.35896766 9.36753316 -3.55276352 7.31843456 -6 5 C-3.74193548 0 -3.74193548 0 0 0 Z " transform="translate(186,98)" style="fill: #E1C2D5;"></path><path d="M0 0 C-0.33 0.99 -0.66 1.98 -1 3 C-1.495 2.649375 -1.99 2.29875 -2.5 1.9375 C-6.82581328 0.31532002 -10.92911967 1.19529328 -15.12109375 2.82421875 C-19.16688645 4.75916308 -22.61034398 7.03405098 -26 10 C-26 9.01 -26 8.02 -26 7 C-19.43350442 1.26526053 -8.65487723 -4.32743862 0 0 Z " transform="translate(68,100)" style="fill: #F4D5F1;"></path><path d="M0 0 C2 3 2 3 1.625 5.6875 C1.41875 6.450625 1.2125 7.21375 1 8 C-2.47325181 9.1577506 -5.36067448 9.06866652 -9 9 C-9 8.34 -9 7.68 -9 7 C-3.58823529 3 -3.58823529 3 -1 3 C-0.67 2.01 -0.34 1.02 0 0 Z " transform="translate(182,83)" style="fill: #DFC0CE;"></path><path d="M0 0 C0.33 0 0.66 0 1 0 C1.1799928 5.21979128 0.97094808 9.07262981 -1 14 C-3.0625 11.8125 -3.0625 11.8125 -5 9 C-4.75 6.1875 -4.75 6.1875 -4 4 C-3.34 4 -2.68 4 -2 4 C-1.34 2.68 -0.68 1.36 0 0 Z " transform="translate(73,115)" style="fill: #A46EAB;"></path><path d="M0 0 C2.77214356 2.68075421 5.21933744 5.43868695 7.5625 8.5 C8.14128906 9.2528125 8.72007813 10.005625 9.31640625 10.78125 C10.88513319 12.848621 12.44592317 14.92159937 14 17 C10.04322598 15.32598022 7.15535787 12.86850715 4 10 C4 9.34 4 8.68 4 8 C2.68 7.34 1.36 6.68 0 6 C0 4.02 0 2.04 0 0 Z " transform="translate(109,61)" style="fill: #847672;"></path><path d="M0 0 C1.67110042 2.96178773 2.32682752 5.37071192 2.625 8.75 C2.69976562 9.54921875 2.77453125 10.3484375 2.8515625 11.171875 C2.92503906 12.07679687 2.92503906 12.07679687 3 13 C2.34 12.34 1.68 11.68 1 11 C0.01 11.495 0.01 11.495 -1 12 C-1.33 10.68 -1.66 9.36 -2 8 C-3.32 8.33 -4.64 8.66 -6 9 C-4.73046875 7.53515625 -3.4609375 6.0703125 -2.19140625 4.60546875 C-0.79128769 2.89287029 -0.79128769 2.89287029 0 0 Z " transform="translate(181,73)" style="fill: #5C2E3B;"></path><path d="M0 0 C5.445 0.99 5.445 0.99 11 2 C11.33 5.3 11.66 8.6 12 12 C11.34 11.67 10.68 11.34 10 11 C9.59270772 8.67843403 9.25561323 6.3431213 9 4 C8.01 4 7.02 4 6 4 C5.67 4.66 5.34 5.32 5 6 C5 5.34 5 4.68 5 4 C4.01 4 3.02 4 2 4 C2 4.99 2 5.98 2 7 C1.34 7 0.68 7 0 7 C0 4.69 0 2.38 0 0 Z " transform="translate(137,105)" style="fill: #945D9B;"></path><path d="M0 0 C0 3 0 3 -1.35546875 4.5 C-8.35083227 10.2275471 -8.35083227 10.2275471 -12 12 C-12.66 11.67 -13.32 11.34 -14 11 C-12.23807715 9.15730989 -10.46648194 7.32609243 -8.6875 5.5 C-7.93823242 4.71302734 -7.93823242 4.71302734 -7.17382812 3.91015625 C-3.33984375 0 -3.33984375 0 0 0 Z " transform="translate(68,16)" style="fill: #A0949F;"></path><path d="M0 0 C7.74468085 0.74468085 7.74468085 0.74468085 11 4 C11 4.66 11 5.32 11 6 C11.598125 6.268125 12.19625 6.53625 12.8125 6.8125 C14.97224808 7.98493467 16.35790256 9.19369282 18 11 C17.67 11.66 17.34 12.32 17 13 C15.66195312 11.96939453 15.66195312 11.96939453 14.296875 10.91796875 C13.11459332 10.00779952 11.9323011 9.097644 10.75 8.1875 C10.16347656 7.73568359 9.57695312 7.28386719 8.97265625 6.81835938 C5.99542152 4.5268922 3.01280445 2.24468847 0 0 Z " transform="translate(129,2)" style="fill: #E0D9DD;"></path><path d="M0 0 C2.70867894 3.41687801 3.74445466 5.57054751 4 10 C3.50418112 12.74683661 2.78743341 15.31346249 2 18 C1.67 18 1.34 18 1 18 C0.10395632 11.95170514 -0.11269443 6.1105424 0 0 Z " transform="translate(209,118)" style="fill: #FAF2F8;"></path><path d="M0 0 C0.66 2.97 1.32 5.94 2 9 C-1.3 8.34 -4.6 7.68 -8 7 C-1 0 -1 0 0 0 Z " transform="translate(92,205)" style="fill: #3B3C52;"></path><path d="M0 0 C2.31 0.33 4.62 0.66 7 1 C7.33 2.32 7.66 3.64 8 5 C1.9453125 5.1953125 1.9453125 5.1953125 0 5 C-0.66 4.34 -1.32 3.68 -2 3 C-1.34 2.01 -0.68 1.02 0 0 Z " transform="translate(140,102)" style="fill: #FCEAFD;"></path><path d="M0 0 C0.66 0 1.32 0 2 0 C2.25 5.625 2.25 5.625 0 9 C-0.66 9 -1.32 9 -2 9 C-2 10.65 -2 12.3 -2 14 C-2.66 14 -3.32 14 -4 14 C-4 15.98 -4 17.96 -4 20 C-4.33 20 -4.66 20 -5 20 C-5.28777039 16.2909594 -5.45567385 12.69899948 -5 9 C-2.5 6.625 -2.5 6.625 0 5 C0.41870553 2.33071879 0.41870553 2.33071879 0 0 Z " transform="translate(43,112)" style="fill: #84588A;"></path><path d="M0 0 C1.4589426 0.47730838 2.91713496 0.95691042 4.375 1.4375 C5.18710938 1.70433594 5.99921875 1.97117187 6.8359375 2.24609375 C9 3 9 3 11 4 C11 4.66 11 5.32 11 6 C3.57142857 6.28571429 3.57142857 6.28571429 0 4 C0 2.68 0 1.36 0 0 Z " transform="translate(136,77)" style="fill: #D1B5BB;"></path><path d="M0 0 C1.98 0 3.96 0 6 0 C6 2.64 6 5.28 6 8 C4.68 7.67 3.36 7.34 2 7 C1.34 4.69 0.68 2.38 0 0 Z " transform="translate(15,135)" style="fill: #FDE9F6;"></path><path d="M0 0 C3.96 1.98 3.96 1.98 8 4 C7.67 4.99 7.34 5.98 7 7 C3.62537285 6.45276317 1.91765 5.9451 -1 4 C-0.67 2.68 -0.34 1.36 0 0 Z " transform="translate(131,79)" style="fill: #F6E8ED;"></path><path d="M0 0 C1.17219543 0.78345715 2.33763668 1.57702836 3.5 2.375 C4.47453125 3.03628906 4.47453125 3.03628906 5.46875 3.7109375 C5.9740625 4.13632813 6.479375 4.56171875 7 5 C7 5.66 7 6.32 7 7 C4.69 7.33 2.38 7.66 0 8 C0 5.36 0 2.72 0 0 Z " transform="translate(132,203)" style="fill: #413C50;"></path><path d="M0 0 C6.27 0.66 12.54 1.32 19 2 C19 2.33 19 2.66 19 3 C16.87562788 3.19448477 14.75046809 3.38038289 12.625 3.5625 C11.44164063 3.66691406 10.25828125 3.77132812 9.0390625 3.87890625 C6 4 6 4 4 3 C3.67 3.99 3.34 4.98 3 6 C2.87625 5.195625 2.7525 4.39125 2.625 3.5625 C2.315625 2.2940625 2.315625 2.2940625 2 1 C1.34 0.67 0.68 0.34 0 0 Z " transform="translate(57,192)" style="fill: #685C6A;"></path><path d="M0 0 C2.66666667 2.66666667 5.33333333 5.33333333 8 8 C7.67 8.66 7.34 9.32 7 10 C6.01 9.67 5.02 9.34 4 9 C3.67 10.65 3.34 12.3 3 14 C2.67 14 2.34 14 2 14 C1.34 9.38 0.68 4.76 0 0 Z " transform="translate(205,97)" style="fill: #736775;"></path><path d="M0 0 C0.66 0 1.32 0 2 0 C2 1.32 2 2.64 2 4 C2.99 4 3.98 4 5 4 C5 4.99 5 5.98 5 7 C3.53984709 6.71758359 2.08190207 6.42373386 0.625 6.125 C-0.18710937 5.96257812 -0.99921875 5.80015625 -1.8359375 5.6328125 C-4 5 -4 5 -6 3 C-4.02 2.67 -2.04 2.34 0 2 C0 1.34 0 0.68 0 0 Z " transform="translate(19,129)" style="fill: #67203E;"></path><path d="M0 0 C3.91939465 3.80411834 7.49102731 7.81576108 11 12 C10.67 12.66 10.34 13.32 10 14 C5.125 10.375 5.125 10.375 4 7 C3.01 6.67 2.02 6.34 1 6 C0.67 4.02 0.34 2.04 0 0 Z " transform="translate(163,42)" style="fill: #8E878D;"></path><path d="M0 0 C0.66 0.33 1.32 0.66 2 1 C0.87851562 1.90492187 0.87851562 1.90492187 -0.265625 2.828125 C-1.25046875 3.62734375 -2.2353125 4.4265625 -3.25 5.25 C-4.22453125 6.03890625 -5.1990625 6.8278125 -6.203125 7.640625 C-8.60247544 9.66465805 -10.82411437 11.74122349 -13 14 C-12.52400411 9.7548938 -10.18784481 8.02531723 -7.0625 5.3125 C-6.16660156 4.52488281 -5.27070312 3.73726562 -4.34765625 2.92578125 C-2 1 -2 1 0 0 Z " transform="translate(49,16)" style="fill: #DED3E0;"></path><path d="M0 0 C-0.66 0.66 -1.32 1.32 -2 2 C-2.556875 2.721875 -3.11375 3.44375 -3.6875 4.1875 C-6 6 -6 6 -9.75 5.75 C-10.8225 5.5025 -11.895 5.255 -13 5 C-8.40698258 1.51564196 -5.91384928 -0.26283775 0 0 Z " transform="translate(173,178)" style="fill: #A596A9;"></path><path d="M0 0 C2.09651475 3.45308311 2.09651475 3.45308311 1.625 6.125 C1.41875 6.74375 1.2125 7.3625 1 8 C1 8.66 1 9.32 1 10 C0.67 10.66 0.34 11.32 0 12 C-0.99 11.01 -1.98 10.02 -3 9 C-3.99 9.495 -3.99 9.495 -5 10 C-4.67 7.36 -4.34 4.72 -4 2 C-2.515 2.99 -2.515 2.99 -1 4 C-0.67 2.68 -0.34 1.36 0 0 Z " transform="translate(98,30)" style="fill: #6F616B;"></path><path d="M0 0 C1.89213369 2.38573379 3.02391783 4.07175348 4 7 C1.69 7.33 -0.62 7.66 -3 8 C-3.36923077 3.44615385 -3.36923077 3.44615385 -1.5 1.1875 C-1.005 0.795625 -0.51 0.40375 0 0 Z " transform="translate(146,113)" style="fill: #EEB4E4;"></path><path d="M0 0 C2.31 0 4.62 0 7 0 C7.33 1.32 7.66 2.64 8 4 C4.7 4 1.4 4 -2 4 C-1.34 2.68 -0.68 1.36 0 0 Z " transform="translate(177,93)" style="fill: #B38899;"></path><path d="M0 0 C4.2742558 1.5830577 6.26531794 4.50568404 9 8 C7.68 7.67 6.36 7.34 5 7 C4.67 7.66 4.34 8.32 4 9 C1.47740939 7.02579865 1.0070192 6.03254358 0.3125 2.8125 C0.209375 1.884375 0.10625 0.95625 0 0 Z " transform="translate(115,59)" style="fill: #8B8182;"></path><path d="M0 0 C3 2 3 2 3.6875 4.625 C3.8421875 5.800625 3.8421875 5.800625 4 7 C4.99 7.33 5.98 7.66 7 8 C6.67 8.66 6.34 9.32 6 10 C5.01 9.34 4.02 8.68 3 8 C3 8.66 3 9.32 3 10 C2.34 10 1.68 10 1 10 C0.67 6.7 0.34 3.4 0 0 Z " transform="translate(183,76)" style="fill: #F3E5ED;"></path><path d="M0 0 C1.75 0.125 1.75 0.125 4 1 C6.25 4.0625 6.25 4.0625 8 7 C7.34 7 6.68 7 6 7 C5.67 7.66 5.34 8.32 5 9 C3.02 6.69 1.04 4.38 -1 2 C-0.67 1.34 -0.34 0.68 0 0 Z " transform="translate(116,67)" style="fill: #F4ECEF;"></path><path d="M0 0 C-0.25566879 3.45152861 -1.26197074 4.24488569 -3.875 6.6875 C-7 9 -7 9 -10 10 C-9.67 9.01 -9.34 8.02 -9 7 C-8.01 7 -7.02 7 -6 7 C-6 5.68 -6 4.36 -6 3 C-2.78571429 0 -2.78571429 0 0 0 Z " transform="translate(60,25)" style="fill: #EEE3EC;"></path><path d="M0 0 C2.97 0.495 2.97 0.495 6 1 C6.33 1.99 6.66 2.98 7 4 C6.01 5.485 6.01 5.485 5 7 C2.525 6.01 2.525 6.01 0 5 C0 3.35 0 1.7 0 0 Z " transform="translate(149,114)" style="fill: #804781;"></path><path d="M0 0 C0.99 0.99 1.98 1.98 3 3 C2.70351563 3.52078125 2.40703125 4.0415625 2.1015625 4.578125 C0.73658132 7.57914746 0.08296803 10.53196349 -0.625 13.75 C-0.88539062 14.92046875 -1.14578125 16.0909375 -1.4140625 17.296875 C-1.60742188 18.18890625 -1.80078125 19.0809375 -2 20 C-2.33 20 -2.66 20 -3 20 C-2.56367091 13.11059329 -1.91610155 6.64248536 0 0 Z " transform="translate(25,80)" style="fill: #544A55;"></path><path d="M0 0 C2.875 0.6875 2.875 0.6875 6 2 C7.375 4.625 7.375 4.625 8 7 C4.0521912 7 2.81491174 5.66275435 0 3 C0 2.01 0 1.02 0 0 Z " transform="translate(127,71)" style="fill: #D3B6B1;"></path><path d="M0 0 C2.11386464 2.11386464 2.97008322 3.79267603 4.1875 6.5 C4.55230469 7.2940625 4.91710937 8.088125 5.29296875 8.90625 C5.52628906 9.5971875 5.75960937 10.288125 6 11 C5.67 11.66 5.34 12.32 5 13 C4.34 12.67 3.68 12.34 3 12 C2.375 9.4375 2.375 9.4375 2 7 C1.01 6.67 0.02 6.34 -1 6 C-0.67 4.02 -0.34 2.04 0 0 Z " transform="translate(103,48)" style="fill: #887876;"></path><path d="M0 0 C1.2065625 0.0309375 1.2065625 0.0309375 2.4375 0.0625 C2.7675 0.7225 3.0975 1.3825 3.4375 2.0625 C2.7775 2.0625 2.1175 2.0625 1.4375 2.0625 C1.4375 3.0525 1.4375 4.0425 1.4375 5.0625 C0.4475 5.0625 -0.5425 5.0625 -1.5625 5.0625 C-1.8925 6.0525 -2.2225 7.0425 -2.5625 8.0625 C-3.80455807 5.57838385 -3.70342354 3.81050896 -3.5625 1.0625 C-2.5625 0.0625 -2.5625 0.0625 0 0 Z " transform="translate(91.5625,39.9375)" style="fill: #C0B6B6;"></path><path d="M0 0 C1.32 0 2.64 0 4 0 C4.33 0.99 4.66 1.98 5 3 C6.49985609 4.66710346 6.49985609 4.66710346 8 6 C5.125 6.1875 5.125 6.1875 2 6 C0 3 0 3 0 0 Z " transform="translate(94,208)" style="fill: #FBEEE8;"></path><path d="M0 0 C0.33 0 0.66 0 1 0 C1.33 4.29 1.66 8.58 2 13 C-0.31 13.66 -2.62 14.32 -5 15 C-5 14.34 -5 13.68 -5 13 C-3.35 12.67 -1.7 12.34 0 12 C0 8.04 0 4.08 0 0 Z " transform="translate(180,116)" style="fill: #ECCED1;"></path><path d="M0 0 C1.32 0.66 2.64 1.32 4 2 C2.02 4.97 2.02 4.97 0 8 C-0.66 7.67 -1.32 7.34 -2 7 C-2.125 4.625 -2.125 4.625 -2 2 C-1.34 1.34 -0.68 0.68 0 0 Z " transform="translate(26,108)" style="fill: #E0BFD9;"></path><path d="M0 0 C0.33 0.99 0.66 1.98 1 3 C-0.4160599 3.79275148 -1.83287553 4.58415312 -3.25 5.375 C-4.03890625 5.81585938 -4.8278125 6.25671875 -5.640625 6.7109375 C-7.73914197 7.85747823 -9.8536077 8.94649552 -12 10 C-8.42148591 5.22864787 -5.31427203 2.70923672 0 0 Z " transform="translate(55,82)" style="fill: #493745;"></path><path d="M0 0 C-0.38520564 2.53910197 -0.70097943 3.72751123 -2.62890625 5.484375 C-3.26699219 5.90203125 -3.90507813 6.3196875 -4.5625 6.75 C-5.20316406 7.17796875 -5.84382813 7.6059375 -6.50390625 8.046875 C-7.24447266 8.51867187 -7.24447266 8.51867187 -8 9 C-7.21550462 4.87478833 -4.69848926 0 0 0 Z " transform="translate(36,28)" style="fill: #AEA3AF;"></path><path d="M0 0 C1.22589844 0.01353516 1.22589844 0.01353516 2.4765625 0.02734375 C3.41628906 0.04474609 3.41628906 0.04474609 4.375 0.0625 C4.375 0.3925 4.375 0.7225 4.375 1.0625 C3.68792969 1.26746094 3.00085938 1.47242187 2.29296875 1.68359375 C1.39191406 1.95300781 0.49085938 2.22242187 -0.4375 2.5 C-1.77748047 2.90025391 -1.77748047 2.90025391 -3.14453125 3.30859375 C-4.97973055 3.86637873 -6.80533726 4.45594575 -8.625 5.0625 C-6.51899199 0.39919656 -5.01778996 -0.07168271 0 0 Z " transform="translate(147.625,92.9375)" style="fill: #805383;"></path><path d="M0 0 C0.33 0 0.66 0 1 0 C1.33 2.31 1.66 4.62 2 7 C-0.64 6.67 -3.28 6.34 -6 6 C-6 5.01 -6 4.02 -6 3 C-5.195625 2.87625 -4.39125 2.7525 -3.5625 2.625 C-2.716875 2.41875 -1.87125 2.2125 -1 2 C-0.67 1.34 -0.34 0.68 0 0 Z " transform="translate(27,133)" style="fill: #6A2D44;"></path><path d="M0 0 C0.33 0 0.66 0 1 0 C1.625 3.375 1.625 3.375 2 7 C1.34 7.66 0.68 8.32 0 9 C0 8.34 0 7.68 0 7 C-0.763125 7.226875 -1.52625 7.45375 -2.3125 7.6875 C-3.199375 7.790625 -4.08625 7.89375 -5 8 C-6.8125 6.5625 -6.8125 6.5625 -8 5 C-6.02 5 -4.04 5 -2 5 C-1.34 3.35 -0.68 1.7 0 0 Z " transform="translate(184,86)" style="fill: #664453;"></path><path d="M0 0 C1.79458945 0.22807491 3.58575449 0.48322303 5.375 0.75 C6.87160156 0.95882812 6.87160156 0.95882812 8.3984375 1.171875 C11 2 11 2 12.3515625 4.078125 C12.56554687 4.71234375 12.77953125 5.3465625 13 6 C12.39671875 5.79503906 11.7934375 5.59007813 11.171875 5.37890625 C10.37265625 5.10949219 9.5734375 4.84007813 8.75 4.5625 C7.96109375 4.29566406 7.1721875 4.02882813 6.359375 3.75390625 C4.25178012 3.08045292 2.15246027 2.50849405 0 2 C0 1.34 0 0.68 0 0 Z " transform="translate(147,82)" style="fill: #301126;"></path><path d="M0 0 C2.15825637 0.96749423 3.7900609 1.78093311 5.4375 3.5 C7.4156595 5.39903312 9.43558782 6.09899031 12 7 C9.47856025 7.93134261 8.38473764 8.16007332 5.859375 7.109375 C5.16328125 6.66078125 4.4671875 6.2121875 3.75 5.75 C3.04359375 5.31171875 2.3371875 4.8734375 1.609375 4.421875 C1.07828125 3.95265625 0.5471875 3.4834375 0 3 C0 2.01 0 1.02 0 0 Z " transform="translate(143,121)" style="fill: #E4BECF;"></path><path d="M0 0 C2 0 2 0 3.69140625 1.6796875 C4.30886719 2.40414062 4.92632812 3.12859375 5.5625 3.875 C6.18253906 4.59429687 6.80257812 5.31359375 7.44140625 6.0546875 C9 8 9 8 10 10 C7.525 9.01 7.525 9.01 5 8 C5 7.34 5 6.68 5 6 C3.68 5.67 2.36 5.34 1 5 C0.67 3.35 0.34 1.7 0 0 Z " transform="translate(147,71)" style="fill: #837A83;"></path><path d="M0 0 C0.66 0 1.32 0 2 0 C2.33 1.65 2.66 3.3 3 5 C3.99 5.33 4.98 5.66 6 6 C6 7.65 6 9.3 6 11 C2.1334716 7.777893 1.11940982 4.85077588 0 0 Z " transform="translate(103,55)" style="fill: #EEDFD7;"></path><path d="M0 0 C1.67542976 0.28604898 3.34385343 0.61781233 5 1 C4.34 2.32 3.68 3.64 3 5 C2.34 4.67 1.68 4.34 1 4 C1 5.65 1 7.3 1 9 C0.67 9 0.34 9 0 9 C-0.87890625 2.84765625 -0.87890625 2.84765625 -1 1 C-0.67 0.67 -0.34 0.34 0 0 Z " transform="translate(22,138)" style="fill: #B48E95;"></path><path d="M0 0 C3.35620271 1.38877354 5.07298728 2.91677965 7 6 C7 6.66 7 7.32 7 8 C4.08482708 6.92598892 2.22189824 6.22189824 0 4 C0.66 4 1.32 4 2 4 C1.34 2.68 0.68 1.36 0 0 Z " transform="translate(70,97)" style="fill: #662F47;"></path><path d="M0 0 C1.98 0.66 3.96 1.32 6 2 C6.33 3.98 6.66 5.96 7 8 C1.125 3.375 1.125 3.375 0 0 Z " transform="translate(119,65)" style="fill: #E4CDC7;"></path><path d="M0 0 C-0.99 0.495 -0.99 0.495 -2 1 C-2 1.66 -2 2.32 -2 3 C-4.9375 2.625 -4.9375 2.625 -8 2 C-8.33 1.34 -8.66 0.68 -9 0 C-5.93109813 -1.53445094 -3.29905734 -0.54984289 0 0 Z " transform="translate(114,1)" style="fill: #7A6A7A;"></path><path d="M0 0 C4.95 0 9.9 0 15 0 C8.83802776 3.08098612 6.67302769 3.18156675 0 1 C0 0.67 0 0.34 0 0 Z " transform="translate(159,130)" style="fill: #FED4D7;"></path><path d="M0 0 C-0.53109375 0.32613281 -1.0621875 0.65226562 -1.609375 0.98828125 C-5.18236731 3.19858124 -8.70082313 5.38815164 -12 8 C-12 7.01 -12 6.02 -12 5 C-10.13671875 3.359375 -10.13671875 3.359375 -7.6875 1.75 C-6.88699219 1.20859375 -6.08648437 0.6671875 -5.26171875 0.109375 C-3 -1 -3 -1 0 0 Z " transform="translate(54,102)" style="fill: #FBDEF9;"></path><path d="M0 0 C0.66 0.66 1.32 1.32 2 2 C-0.97 4.475 -0.97 4.475 -4 7 C-4.33 6.01 -4.66 5.02 -5 4 C-3.36587557 2.29159719 -2.13093906 1.06546953 0 0 Z " transform="translate(58,83)" style="fill: #A3909C;"></path><path d="M0 0 C3.43927579 1.2419607 6.25207819 2.55740284 9 5 C9 5.66 9 6.32 9 7 C6.0280615 5.87548273 3.66559313 4.77706209 1 3 C0.67 2.01 0.34 1.02 0 0 Z " transform="translate(157,81)" style="fill: #9A8D98;"></path><path d="M0 0 C1.65 1.65 3.3 3.3 5 5 C4.67 5.66 4.34 6.32 4 7 C3.34 6.34 2.68 5.68 2 5 C1.34 6.32 0.68 7.64 0 9 C-1.125 2.25 -1.125 2.25 0 0 Z " transform="translate(180,64)" style="fill: #686167;"></path><path d="M0 0 C0 0.99 0 1.98 0 3 C-2.5 4.6875 -2.5 4.6875 -5 6 C-5.66 5.34 -6.32 4.68 -7 4 C-3.375 0 -3.375 0 0 0 Z " transform="translate(68,16)" style="fill: #B9ADBB;"></path><path d="M0 0 C2.475 0.99 2.475 0.99 5 2 C4.01 3.485 4.01 3.485 3 5 C2.01 5 1.02 5 0 5 C-0.99 5.495 -0.99 5.495 -2 6 C-1.34 4.02 -0.68 2.04 0 0 Z " transform="translate(157,114)" style="fill: #EEADDF;"></path><path d="M0 0 C2.475 0.99 2.475 0.99 5 2 C5 2.66 5 3.32 5 4 C4.01 4 3.02 4 2 4 C2 4.99 2 5.98 2 7 C1.34 7 0.68 7 0 7 C0 4.69 0 2.38 0 0 Z " transform="translate(137,105)" style="fill: #9A6E9B;"></path><path d="M0 0 C0.33 0 0.66 0 1 0 C1 2.97 1 5.94 1 9 C1.66 9 2.32 9 3 9 C2.67 10.65 2.34 12.3 2 14 C-0.7500904 8.86649792 -1.18149786 5.77621177 0 0 Z " transform="translate(185,98)" style="fill: #C7AFBA;"></path><path d="M0 0 C1.98 0.66 3.96 1.32 6 2 C6.33 3.65 6.66 5.3 7 7 C5.82780457 6.21654285 4.66236332 5.42297164 3.5 4.625 C2.8503125 4.18414062 2.200625 3.74328125 1.53125 3.2890625 C1.0259375 2.86367187 0.520625 2.43828125 0 2 C0 1.34 0 0.68 0 0 Z " transform="translate(157,94)" style="fill: #F8DEF9;"></path><path d="M0 0 C0.99 0.33 1.98 0.66 3 1 C1 3 -1 5 -3 7 C-3.99 6.34 -4.98 5.68 -6 5 C-1.60546875 0.99609375 -1.60546875 0.99609375 0 0 Z " transform="translate(140,93)" style="fill: #FADEF5;"></path><path d="M0 0 C0.66 1.32 1.32 2.64 2 4 C-1 5 -1 5 -3 4 C-3.33 4.66 -3.66 5.32 -4 6 C-4.66 5.34 -5.32 4.68 -6 4 C-4.02 2.68 -2.04 1.36 0 0 Z " transform="translate(171,84)" style="fill: #6D3346;"></path><path d="M0 0 C0.66 0.66 1.32 1.32 2 2 C-0.31 4.97 -2.62 7.94 -5 11 C-5.33 10.34 -5.66 9.68 -6 9 C-4.02 6.03 -2.04 3.06 0 0 Z " transform="translate(25,41)" style="fill: #DFD4DF;"></path><path d="M0 0 C0.66 0.33 1.32 0.66 2 1 C-0.46153846 5.8 -0.46153846 5.8 -3.1875 6.8125 C-3.785625 6.874375 -4.38375 6.93625 -5 7 C-4.60196439 4.11424181 -4.20990931 3.17810487 -1.9375 1.25 C-1.298125 0.8375 -0.65875 0.425 0 0 Z " transform="translate(64,126)" style="fill: #F7BDEB;"></path><path d="M0 0 C0.66 0.33 1.32 0.66 2 1 C0.02 2.98 -1.96 4.96 -4 7 C-4.99 6.67 -5.98 6.34 -7 6 C-4.69 4.02 -2.38 2.04 0 0 Z " transform="translate(50,105)" style="fill: #935B99;"></path><path d="M0 0 C0.33 0 0.66 0 1 0 C1.125 3.375 1.125 3.375 1 7 C0.34 7.66 -0.32 8.32 -1 9 C-1.33 7.68 -1.66 6.36 -2 5 C-2.66 5 -3.32 5 -4 5 C-3.67 4.01 -3.34 3.02 -3 2 C-3 2.66 -3 3.32 -3 4 C-2.01 4 -1.02 4 0 4 C0 2.68 0 1.36 0 0 Z " transform="translate(97,27)" style="fill: #B6A9B4;"></path><path d="M0 0 C0.66 1.32 1.32 2.64 2 4 C0.02 4.99 0.02 4.99 -2 6 C-2.66 5.34 -3.32 4.68 -4 4 C-2.68 2.68 -1.36 1.36 0 0 Z " transform="translate(42,92)" style="fill: #C0A9BA;"></path><path d="M0 0 C1.32 0.33 2.64 0.66 4 1 C3.67 1.66 3.34 2.32 3 3 C2.34 3 1.68 3 1 3 C1 3.66 1 4.32 1 5 C0.01 5.33 -0.98 5.66 -2 6 C-1.34 4.02 -0.68 2.04 0 0 Z " transform="translate(86,9)" style="fill: #EADCEB;"></path><path d="M0 0 C2.97 0 5.94 0 9 0 C7.68 0.33 6.36 0.66 5 1 C3.71563266 2.9837767 3.71563266 2.9837767 3 5 C2.01 3.35 1.02 1.7 0 0 Z " transform="translate(92,0)" style="fill: #D5C1D4;"></path><path d="M0 0 C-0.3125 1.875 -0.3125 1.875 -1 4 C-2.485 4.99 -2.485 4.99 -4 6 C-4.042721 4.33388095 -4.04063832 2.66617115 -4 1 C-3 0 -3 0 0 0 Z " transform="translate(147,110)" style="fill: #AB63B3;"></path><path d="M0 0 C0.66 0.33 1.32 0.66 2 1 C3.53668865 1.22467831 5.07968054 1.40796805 6.625 1.5625 C7.44226562 1.64628906 8.25953125 1.73007813 9.1015625 1.81640625 C9.72804688 1.87699219 10.35453125 1.93757813 11 2 C11 2.33 11 2.66 11 3 C6.71 3 2.42 3 -2 3 C-1.34 2.01 -0.68 1.02 0 0 Z " transform="translate(56,88)" style="fill: #FEE8FA;"></path><path d="M0 0 C1.32 0.66 2.64 1.32 4 2 C-0.455 3.485 -0.455 3.485 -5 5 C-5 4.34 -5 3.68 -5 3 C-2.75 1.25 -2.75 1.25 0 0 Z " transform="translate(147,88)" style="fill: #551E44;"></path><path d="M0 0 C-0.33 0.99 -0.66 1.98 -1 3 C-2.98 3.33 -4.96 3.66 -7 4 C-7 3.34 -7 2.68 -7 2 C-4.35261084 0.5393715 -3.10551666 0 0 0 Z " transform="translate(63,80)" style="fill: #301F26;"></path><path d="M0 0 C0 3 0 3 -2 5.1875 C-2.66 5.785625 -3.32 6.38375 -4 7 C-4.33 6.01 -4.66 5.02 -5 4 C-3.36587557 2.29159719 -2.13093906 1.06546953 0 0 Z " transform="translate(24,41)" style="fill: #988D98;"></path><path d="M0 0 C5.875 3.75 5.875 3.75 7 6 C4.0625 5.25 4.0625 5.25 1 4 C0.125 1.875 0.125 1.875 0 0 Z " transform="translate(123,21)" style="fill: #9E949B;"></path></svg>